<svg width="15" height="24" viewBox="0 0 15 24" fill="none" xmlns="http://www.w3.org/2000/svg">
<path d="M15 0H0V24H15V0Z" fill="#E52619"/>
<path d="M12.0539 9.52152H12.1029C12.1628 9.52152 12.2122 9.5004 12.2122 9.44422C12.2122 9.40162 12.1831 9.36278 12.1068 9.36278C12.083 9.36278 12.0667 9.36278 12.0543 9.36467V9.52152H12.0539ZM12.0539 9.79373H11.9719V9.31075C12.0103 9.30472 12.0482 9.29718 12.1082 9.29718C12.1809 9.29718 12.2264 9.31264 12.2555 9.33602C12.281 9.35713 12.2956 9.38993 12.2956 9.43631C12.2956 9.49852 12.2572 9.53848 12.2086 9.55243V9.5562C12.2484 9.56412 12.2739 9.60258 12.2828 9.67421C12.2938 9.74962 12.303 9.77865 12.3101 9.79411H12.2264C12.2154 9.77865 12.2065 9.73416 12.1973 9.67044C12.1884 9.61238 12.1575 9.589 12.1011 9.589H12.0539V9.79373ZM12.1284 9.18105C11.9482 9.18105 11.8027 9.34167 11.8027 9.54263C11.8027 9.74359 11.9482 9.9042 12.1302 9.9042C12.3105 9.90609 12.4542 9.74397 12.4542 9.54263C12.4542 9.34129 12.3105 9.18105 12.1302 9.18105H12.1284ZM12.1298 9.10791C12.3552 9.10791 12.5354 9.30095 12.5354 9.54112C12.5354 9.78431 12.3552 9.97773 12.1281 9.97773C11.901 9.97773 11.7168 9.78431 11.7168 9.54112C11.7168 9.30133 11.901 9.10791 12.1281 9.10791H12.1298Z" fill="white"/>
<path d="M3.9937 19.7538L3.89546 19.17C3.86732 19.0017 3.83099 18.7392 3.80387 18.557H3.79313C3.76397 18.7407 3.72406 19.0109 3.69438 19.1715L3.58847 19.7543H3.9937V19.7538ZM3.53577 20.134L3.40734 20.7812H2.93457L3.52451 18.0868H4.10422L4.64043 20.7812H4.16459L4.03924 20.134H3.53577Z" fill="white"/>
<path d="M5.71733 19.5784C5.71733 19.5421 5.71733 19.5001 5.71068 19.4623C5.69175 19.3287 5.62063 19.209 5.50704 19.209C5.3121 19.209 5.23996 19.4909 5.23996 19.8199C5.23996 20.1975 5.34229 20.4134 5.49988 20.4134C5.57202 20.4134 5.65542 20.3761 5.70045 20.218C5.7117 20.1863 5.71733 20.1438 5.71733 20.0947V19.5784ZM6.20289 18.0158V20.2226C6.20289 20.3981 6.2121 20.613 6.21876 20.7813H5.79971L5.77208 20.5567H5.76185C5.69175 20.6948 5.53825 20.813 5.35508 20.813C4.95343 20.813 4.75439 20.3699 4.75439 19.8102C4.75439 19.1281 5.05167 18.7966 5.37503 18.7966C5.54439 18.7966 5.65337 18.88 5.70915 18.9997H5.71682V18.0158H6.20289Z" fill="white"/>
<path d="M7.21484 20.4404C7.40006 20.4404 7.4461 20.0909 7.4461 19.8018C7.4461 19.5271 7.40006 19.1689 7.20716 19.1689C7.00199 19.1689 6.95901 19.5266 6.95901 19.8018C6.95901 20.1339 7.01324 20.4404 7.21125 20.4404H7.21484ZM7.20563 20.8134C6.75844 20.8134 6.47754 20.4537 6.47754 19.811C6.47754 19.109 6.83723 18.7969 7.21637 18.7969C7.65742 18.7969 7.93525 19.174 7.93525 19.7993C7.93525 20.6031 7.50136 20.8134 7.20972 20.8134H7.20563Z" fill="white"/>
<path d="M8.69183 20.0844C8.69183 20.133 8.70053 20.1781 8.71127 20.2088C8.75988 20.3725 8.84226 20.4124 8.90877 20.4124C9.09604 20.4124 9.17176 20.1745 9.17176 19.7938C9.17176 19.4474 9.09143 19.2085 8.90621 19.2085C8.81412 19.2085 8.73634 19.3088 8.70974 19.4162C8.70053 19.4495 8.69132 19.5027 8.69132 19.539V20.0844H8.69183ZM8.20627 18.0158H8.69183V19.033H8.6995C8.79518 18.8831 8.92259 18.7966 9.10729 18.7966C9.47364 18.7966 9.65732 19.2131 9.65732 19.757C9.65732 20.4446 9.38308 20.813 9.0285 20.813C8.85914 20.813 8.74606 20.7378 8.64476 20.5475H8.63452L8.60741 20.7813H8.19092C8.19757 20.6191 8.20678 20.3976 8.20678 20.2226V18.0158H8.20627Z" fill="white"/>
<path d="M10.8208 19.619C10.8234 19.3447 10.743 19.1529 10.5895 19.1529C10.4135 19.1529 10.3388 19.4102 10.3332 19.619H10.8208ZM10.3317 19.9623C10.3373 20.3148 10.523 20.4305 10.7533 20.4305C10.8991 20.4305 11.025 20.3982 11.1176 20.3629L11.1825 20.7124C11.0541 20.7682 10.8551 20.803 10.6647 20.803C10.1434 20.803 9.85889 20.4474 9.85889 19.839C9.85889 19.1861 10.1889 18.7942 10.6202 18.7942C11.0362 18.7942 11.267 19.1406 11.267 19.706C11.267 19.8354 11.2618 19.9081 11.2532 19.9649L10.3317 19.9623Z" fill="white"/>
<path d="M8.16162 9.21017H11.2674V16.6461L8.16162 9.21017Z" fill="white"/>
<path d="M5.97355 9.21078H2.86523V16.6467L5.97355 9.21078Z" fill="white"/>
<path d="M7.06741 11.9508L9.0465 16.6462H7.74945L7.15746 15.1507H5.70947L7.06741 11.9508Z" fill="white"/>
</svg>
