<svg xmlns="http://www.w3.org/2000/svg" width="16" height="16" fill="none">
  <rect width="16" height="16" fill="#151515" rx="1.08"/>
  <path fill="#fff" d="M7.36 9.98h1.08L6.4 4.67H5.05L3 9.98H4.1l.44-1.15h2.4l.43 1.15zM4.87 7.91l.85-2.25.85 2.25h-1.7zm5.84 2.18c1 0 1.63-.6 1.85-1.1l-.9-.26c-.16.29-.45.5-.94.5-.7 0-1.05-.37-1.12-.86h2.99c.02-.13.02-.24.02-.36 0-1.1-.72-1.98-1.98-1.98-1.2 0-2.01.89-2.01 2.03 0 1.22.86 2.03 2.09 2.03zM9.6 7.74a.99.99 0 011.01-.86c.6 0 .97.38 1.01.86H9.6z"/>
</svg>
