<svg xmlns="http://www.w3.org/2000/svg" width="16" height="16" fill="none">
  <rect width="16" height="16" fill="#151515" rx="1.08"/>
  <g fill="#fff" clip-path="url(#clip0)">
    <path d="M12.11 6.54a.27.27 0 00-.4-.23l-1.68 1.01v1.22l1.68.91c.18.1.4-.03.4-.23V6.54zM8.86 5.6H4.88c-.4 0-.72.33-.72.73v3.61c0 .4.32.73.72.73h3.98c.4 0 .72-.33.72-.73V6.33c0-.4-.32-.73-.72-.73z"/>
  </g>
  <defs>
    <clipPath id="clip0">
      <path fill="#fff" d="M0 0h8.68v8.68H0z" transform="translate(3.8 3.8)"/>
    </clipPath>
  </defs>
</svg>
