<svg width="30" height="30" fill="none" xmlns="http://www.w3.org/2000/svg">
    <circle cx="15" cy="15" r="15" fill="#A4A4A4"/>
    <g clip-path="url(#clip0)" fill="#fff">
        <path d="M15 8.441c2.136 0 2.389.008 3.233.047.78.035 1.203.165 1.485.275.348.128.663.333.921.599.266.258.47.573.599.92.11.283.24.706.275 1.486.039.844.047 1.097.047 3.233s-.008 2.389-.047 3.233c-.035.78-.166 1.203-.275 1.485a2.65 2.65 0 01-1.518 1.518c-.282.11-.706.24-1.486.276-.843.038-1.097.046-3.233.046s-2.39-.008-3.232-.046c-.78-.036-1.204-.166-1.486-.276a2.478 2.478 0 01-.921-.598 2.477 2.477 0 01-.599-.921c-.11-.282-.24-.706-.275-1.486-.038-.843-.047-1.096-.047-3.232 0-2.137.009-2.39.047-3.233.036-.78.166-1.204.275-1.486.129-.348.333-.662.599-.92.258-.267.573-.471.92-.6.283-.109.707-.239 1.486-.275.844-.038 1.097-.046 3.233-.046L15 8.44zm.001-1.443c-2.172 0-2.445.01-3.298.049-.853.039-1.435.175-1.943.372a3.928 3.928 0 00-1.417.923c-.407.4-.722.884-.923 1.418-.198.508-.333 1.09-.372 1.942C7.01 12.553 7 12.827 7 14.999c0 2.173.01 2.446.048 3.3.04.852.174 1.432.372 1.94.2.534.516 1.017.923 1.417.4.407.883.723 1.417.923.508.198 1.09.334 1.942.372.851.039 1.126.049 3.299.049 2.172 0 2.445-.01 3.298-.049.853-.039 1.433-.174 1.94-.372a4.088 4.088 0 002.34-2.34c.199-.508.334-1.09.373-1.942.038-.851.048-1.125.048-3.298s-.01-2.445-.048-3.299c-.04-.853-.174-1.432-.372-1.94a3.921 3.921 0 00-.923-1.417 3.927 3.927 0 00-1.417-.924c-.508-.197-1.09-.332-1.942-.371C17.447 7.009 17.173 7 15 7l.001-.002z"/>
        <path d="M15 10.892a4.108 4.108 0 100 8.216 4.108 4.108 0 000-8.216zm0 6.776a2.667 2.667 0 110-5.335 2.667 2.667 0 010 5.335zM19.27 11.69a.96.96 0 100-1.92.96.96 0 000 1.92z"/>
    </g>
    <defs>
        <clipPath id="clip0"><path fill="#fff" transform="translate(7 7)" d="M0 0h16v16H0z"/></clipPath>
    </defs>
</svg>