<svg xmlns="http://www.w3.org/2000/svg" width="16" height="16" fill="none">
  <rect width="16" height="16" fill="#151515" rx="1.08"/>
  <path fill="#fff" d="M13.04 4.34a.55.55 0 00-.46.25l-.59.67a53.21 53.21 0 01-3.07 3.47c-.09.08-.13.1-.15.11v-.03l.96-1.82.91-1.7a.8.8 0 00.07-.26.38.38 0 00-.09-.3.53.53 0 00-.37-.17c-.1-.01-.21.04-.32.14l-.01.01a43.48 43.48 0 00-2 2.35c-.43.54-1.56 1.87-1.8 2.17-.5.54-1.1 1.17-1.64 1.51-1.1.7-1.44.04-.9-.71.25-.36.67-.72 1.13-.98.36-.18.82-.37 1.38-.48.21-.04-.08-.51-.6-.5-.77-.02-1.72.62-1.72.62-.34.21-.68.5-.98.87-1.01 1.27.36 2.25 1.68 1.9.54-.15 1.16-.7 1.64-1.23l.09-.09.15-.17.61-.7.39-.46.55-.66.05-.01v-.01l-.08.16c-.48.87-.95 1.74-1.4 2.6l-.02.02a.46.46 0 00-.04.11c-.04.18-.01.4.12.5.08.08.2.13.32.14h.03c.11 0 .24-.05.34-.13l.12-.1.62-.54c.97-.96 1.9-2 2.7-2.93l.03-.02v.03c-.39.67-.69 1.3-.94 1.9-.21.56-.21 1.12.01 1.45.15.23.39.34.7.34.57 0 1.67-.79 2.48-2.06.24-.38.25-.8.14-1.01-.04-.07-.08-.1-.14-.1-.03 0-.08.01-.13.1-.53.85-1.13 1.5-1.7 2.06-.46.45-.6.45-.65.45h-.03c-.06 0-.1-.01-.1-.04-.13-.22.35-1.08.64-1.59l.17-.3c.42-.77.86-1.51 1.29-2.23a73.56 73.56 0 001.08-1.88l.04-.1v-.04-.07a.51.51 0 00-.51-.51z"/>
</svg>
