<svg xmlns="http://www.w3.org/2000/svg" width="53.95" height="14.36" fill="none">
    <g clip-path="url(#paypal-clip0)" transform="translate(-.95 -.14)">
        <path fill="#123182" d="M7.43.14h-4.2a.58.58 0 00-.58.49L.95 11.38a.35.35 0 00.35.4h2a.58.58 0 00.58-.5l.46-2.9a.58.58 0 01.58-.48h1.32c2.77 0 4.36-1.34 4.78-3.99.19-1.16 0-2.07-.54-2.7C9.88.5 8.83.14 7.43.14zm.48 3.92c-.23 1.5-1.38 1.5-2.5 1.5h-.63l.45-2.8a.35.35 0 01.34-.3h.3c.75 0 1.47 0 1.84.43.22.26.28.64.2 1.17zm12.06-.05h-2.01a.35.35 0 00-.35.3l-.08.56-.15-.2c-.43-.63-1.4-.85-2.37-.85a4.62 4.62 0 00-4.48 4.04c-.2 1.18.08 2.3.74 3.08.62.73 1.5 1.03 2.53 1.03 1.8 0 2.79-1.15 2.79-1.15l-.1.55a.35.35 0 00.2.38l.15.03h1.81a.58.58 0 00.58-.5l1.08-6.86a.35.35 0 00-.34-.4zm-2.8 3.91a2.24 2.24 0 01-2.27 1.92c-.58 0-1.05-.19-1.35-.54a1.7 1.7 0 01-.31-1.41 2.25 2.25 0 012.25-1.94c.57 0 1.03.2 1.34.55.3.36.43.87.34 1.42zm13.5-3.9h-2.02a.59.59 0 00-.48.25l-2.79 4.1-1.18-3.94a.58.58 0 00-.56-.42h-1.98a.35.35 0 00-.33.47L23.55 11l-2.09 2.94a.35.35 0 00.29.56h2.01a.58.58 0 00.48-.25l6.72-9.69a.35.35 0 00-.29-.55z"/>
        <path fill="#4a9bd9" d="M37.36.14h-4.2a.58.58 0 00-.57.49l-1.7 10.75a.35.35 0 00.34.4h2.16a.4.4 0 00.4-.34l.48-3.05a.58.58 0 01.58-.5h1.32c2.77 0 4.36-1.33 4.78-3.98.19-1.16 0-2.07-.54-2.7-.6-.7-1.65-1.07-3.05-1.07zm.48 3.92c-.23 1.5-1.38 1.5-2.5 1.5h-.62l.44-2.8a.35.35 0 01.35-.3h.29c.75 0 1.47 0 1.84.43.22.26.29.64.2 1.17zm12.06-.05h-2a.35.35 0 00-.35.3l-.1.56-.13-.2c-.44-.63-1.4-.84-2.38-.84a4.62 4.62 0 00-4.48 4.03c-.2 1.18.08 2.3.75 3.09.61.72 1.49 1.02 2.53 1.02a3.85 3.85 0 002.78-1.15l-.1.55a.35.35 0 00.36.4h1.8a.58.58 0 00.58-.48l1.09-6.87a.35.35 0 00-.35-.4zm-2.8 3.91a2.24 2.24 0 01-2.27 1.92c-.58 0-1.05-.19-1.35-.54-.3-.36-.4-.86-.31-1.41a2.25 2.25 0 012.25-1.94c.57 0 1.03.2 1.34.55.3.36.43.87.34 1.42zM52.27.43l-1.72 10.95a.35.35 0 00.34.4h1.73c.3 0 .54-.2.58-.5L54.9.55a.35.35 0 00-.35-.4h-1.94a.35.35 0 00-.34.3z"/>
    </g>
    <defs id="defs84">
        <clipPath id="paypal-clip0">
            <path id="rect81" fill="#fff" d="M.1 0h55.06v15H.1z"/>
        </clipPath>
    </defs>
</svg>
