<svg xmlns="http://www.w3.org/2000/svg" width="16" height="16" fill="none">
  <rect width="16" height="16" fill="#151515" rx="1.085"/>
  <path fill="#fff" d="M10.461 4.923h2.462v5.538h-2.462V4.923z"/>
  <path fill="#1C1D31" d="M11.077 5.538h1.23v.616h-1.23v-.616zM11.077 9.23h1.23v.616h-1.23v-.615z"/>
  <path fill="#fff" d="M8.615 12.923h1.846V12l-.615-.923h-.615L8.615 12v.923zM9.231 4.923h.615v6.154h-.615zM8.615 3.077h1.846V4l-.615.923h-.615L8.615 4v-.923zM3.077 4.923h5.538v5.538H3.077V4.923z"/>
  <path fill="#1C1D31" d="M6.77 5.538H8v.616H6.77v-.616zM6.77 9.23H8v.616H6.77v-.615zM4.923 5.538h1.23v.616h-1.23v-.616zM4.923 9.23h1.23v.616h-1.23v-.615zM3.077 5.538h1.23v.616h-1.23v-.616zM3.077 9.23h1.23v.616h-1.23v-.615z"/>
</svg>