<svg xmlns="http://www.w3.org/2000/svg" viewBox="0 0 45 45" fill="none">
  <path fill="#4A4A4A" fill-rule="evenodd" d="M0 22.5A22.45 22.45 0 0122.5 0 22.44 22.44 0 0145 22.5 22.44 22.44 0 0122.5 45 22.45 22.45 0 010 22.5zm7.79-6.95a7 7 0 00-7 7.05 7 7 0 007 7.04c2.39 0 3.32-1.7 3.32-1.7v1.55h3.69v-6.9a7 7 0 00-7.01-7.04zm0 3.69c1.85 0 3.34 1.5 3.34 3.36a3.34 3.34 0 11-6.68 0 3.34 3.34 0 013.34-3.36zm7.9 3.36V10.7h3.69v6.55s.93-1.7 3.32-1.7a7 7 0 017 7.05 7 7 0 11-14 0zm10.35 0a3.34 3.34 0 10-6.68 0 3.34 3.34 0 106.68 0zm4.27 0a7 7 0 0113.85-1.54h-3.87a3.34 3.34 0 00-6.32 1.54 3.34 3.34 0 006.3 1.55h3.89A7 7 0 0130.3 22.6z" clip-rule="evenodd" />
</svg>