<svg xmlns="http://www.w3.org/2000/svg" viewBox="0 0 100 26" fill="none">
  <g fill="#4A4A4A" clip-path="url(#adobe-clip0)">
    <path d="M17.84 0l10.5 25.04V0h-10.5zM0 0v25.04L10.5 0H0zm9.6 19.93h4.79l2.1 5.1h4.34L14.1 9.15 9.6 19.93zM45.93 16.16l-1.16 3.46c-.04.13-.1.17-.23.17h-2.1c-.12 0-.17-.07-.15-.21l4.34-12.32c.08-.2.14-.42.19-1.13 0-.08.04-.14.12-.14h2.92c.1 0 .13.02.15.12l4.85 13.5c.02.12 0 .19-.12.19h-2.36c-.1 0-.17-.04-.2-.13l-1.23-3.5h-5.02v-.01zm4.35-2.3c-.44-1.39-1.43-4.3-1.85-5.77h-.02c-.34 1.41-1.19 3.87-1.81 5.77h3.68zM55.62 14.7c0-3.04 2.27-5.48 5.97-5.48.3 0 .54.02.9.06V4.97c0-.1.04-.15.13-.15h2.29c.1 0 .1.05.1.13v12.7c0 .41.04.95.09 1.34 0 .1-.03.15-.13.19-1.37.59-2.71.82-3.98.82-3.04 0-5.37-1.76-5.37-5.3zm6.87-3.21c-.27-.1-.6-.15-.98-.15-1.88 0-3.28 1.2-3.28 3.24 0 2.29 1.37 3.23 3.05 3.23.41 0 .83-.04 1.22-.17V11.5h-.01zM77.14 14.56c0 3.25-2.08 5.44-5.04 5.44-3.52 0-5.07-2.71-5.07-5.38 0-2.98 1.96-5.4 5.1-5.4 3.25 0 5 2.46 5 5.34zm-7.55.02c0 1.93.95 3.27 2.55 3.27 1.3 0 2.41-1.07 2.41-3.23 0-1.75-.75-3.28-2.54-3.28-1.4 0-2.42 1.24-2.42 3.24zM81.47 4.82c.15 0 .19.02.19.17l.02 4.52c.57-.19 1.22-.3 1.92-.3a4.75 4.75 0 014.96 4.97c0 3.9-3.03 5.82-6.15 5.82-1.09 0-2.14-.15-3.15-.46-.08-.02-.14-.13-.14-.2V4.98c0-.1.06-.15.14-.15h2.21zm1.69 6.56c-.74 0-1.13.1-1.48.23v6.15c.3.08.6.1.96.1 1.73 0 3.32-1.09 3.32-3.42.01-2-1.14-3.06-2.8-3.06zM92.62 15.2c.06 1.47 1.02 2.64 3.17 2.64.94 0 1.8-.17 2.6-.5.06-.04.13-.02.13.08v1.75c0 .13-.04.19-.13.23a7 7 0 01-3.15.6c-3.83 0-5.19-2.68-5.19-5.27 0-2.92 1.77-5.5 4.94-5.5 3.1 0 4.31 2.44 4.31 4.44 0 .58-.02 1.06-.08 1.3-.02.09-.06.13-.17.15-.3.06-1.13.08-2.17.08h-4.26zm3.12-1.82c.8 0 1.07 0 1.16-.02v-.16c0-.61-.42-1.96-2.02-1.96-1.46 0-2.1 1.1-2.28 2.14h3.14z" />
  </g>
  <defs>
    <clipPath id="adobe-clip0">
      <path fill="#fff" d="M0 0h99.3v25.04H0z" />
    </clipPath>
  </defs>
</svg>