<svg xmlns="http://www.w3.org/2000/svg" viewBox="0 0 118 25" fill="none">
  <path fill="#4A4A4A" d="M18.66 1.91a1.94 1.94 0 003.88 0c0-1.05-.88-1.9-1.97-1.9-1.04 0-1.91.85-1.91 1.9zm4 3.7h-4.14v13.34h4.15V5.6zm87 18.47l8.33-18.48h-4.38l-3 7.15-3.3-7.15h-4.63l5.7 11.55-3.08 6.93h4.36zM102.1 5.6a4.1 4.1 0 00-1.09-.13c-1.09 0-2.8.43-3.51 1.93V5.6H93.5v13.35h4.14v-5.83c0-2.66 1.5-3.62 3.16-3.62.41 0 .85.02 1.31.13V5.6zm-19.59 5.08c.08-1 .96-2.26 2.7-2.26 1.96 0 2.67 1.24 2.72 2.26h-5.42zm5.72 3.46c-.38 1.05-1.22 1.75-2.72 1.75-1.6 0-3-1.08-3.08-2.58h9.43c.02-.08.08-.7.08-1.26 0-4.3-2.6-6.85-6.79-6.85a6.78 6.78 0 00-6.75 7.04c0 4.48 3.32 7.11 7.06 7.11 3.43 0 5.58-1.93 6.23-4.24l-3.46-.97zM78.92 5.6h-4.36l-2.89 8.3-3.13-8.3h-4.5l5.56 13.35h4.17L78.92 5.6zm-21.39 10c-1.55 0-3.05-1.1-3.05-3.34 0-2.25 1.5-3.3 3.05-3.3 1.58 0 3.06 1.05 3.06 3.3 0 2.26-1.48 3.33-3.06 3.33zm0-10.4c-4.03 0-7.19 2.92-7.19 7.06s3.16 7.1 7.2 7.1c4.05 0 7.19-2.96 7.19-7.1s-3.14-7.06-7.2-7.06zM43.15 8.96c1.6 0 2.43.97 2.73 1.98l3.7-1.1c-.6-2.39-2.78-4.64-6.51-4.64a6.94 6.94 0 00-7.14 7.09c0 4.14 3.24 7.06 7.28 7.06 3.62 0 5.85-2.3 6.46-4.65L46 13.6c-.3 1-1.2 2-2.8 2-1.72 0-3.17-1.19-3.17-3.31 0-2.15 1.4-3.33 3.11-3.33zm-19.28 6.2c.1 1.48 1.47 4.2 5.72 4.2 3.62 0 5.4-2.24 5.4-4.52 0-1.96-1.37-3.63-4.18-4.19l-1.8-.35c-.6-.1-1.06-.43-1.06-1 0-.69.68-1.15 1.48-1.15 1.25 0 1.82.75 1.93 1.64l3.43-.62c-.13-1.55-1.5-3.97-5.42-3.97-3.02 0-5.2 1.98-5.2 4.43 0 1.88 1.14 3.5 4.03 4.11l1.55.35c1.01.21 1.34.62 1.34 1.1 0 .59-.52 1.15-1.58 1.15-1.42 0-2.07-.88-2.13-1.8l-3.51.62zM5.47 10.22l.02.1a.2.2 0 01.03.06l.02.04c.02 0 .02-.02-.01-.07a.27.27 0 01-.03-.1c0-.09-.02-.1-.03-.03zm-.17-2.5h-.04c0 .02 0 .02.03.02l.05-.01c0-.01-.01-.02-.04-.02zm.02-1.02c.04 0 .03-.03 0-.06-.05-.02-.05-.02-.05 0s.03.07.05.07zm.13-.04l-.01-.05c-.01-.02-.02-.02-.02-.01H5.4c-.03 0-.02.02.01.05.02.01.03.02.04.01zm.96.9v-.04l-.02-.04c0-.02 0-.02-.02-.02-.04 0-.07.05-.06.1.01.03.02.04.07.05h.03v-.04zM5.58 9.9c.02-.01.02-.02.02-.03 0 0-.02 0-.03.02l-.01.03.02-.02zm.64-2.07V7.8c-.02 0-.02 0-.03-.02 0-.02 0-.03.02-.02h.03l-.02-.05c-.02-.03-.03-.03-.04-.01-.01.01-.01.01-.01-.02l-.01-.03-.06-.05-.03-.06s.02 0 .02-.02l.02-.01c.02 0 .03-.02.02-.06 0-.04-.07-.04-.12 0-.06.05-.07.08-.04.13l.02.04.05.08.05.06v.05.08c.02.05.13.1.16.07.02 0 0-.1-.02-.12v-.02zm-.71 0v.04l.01-.02-.01-.01zm.05-1.01l-.03-.03c-.01-.02-.02-.02-.01 0 0 .03.04.06.04.03zm.35.2l.01-.03-.01.02c-.01.03 0 .08.02.07l-.01-.03v-.03zm.04.88l.01.02.02.02v-.02a.09.09 0 00-.03-.02zm.12-1.06l.01-.02V6.8l-.01.01v.02zm-.2 1.02c-.01 0-.02 0 0 .01h0zm-.23-.32c-.03-.01-.05-.03-.05-.04h.02s.02-.04.01-.05c0 0 0-.02.02-.03l.02-.02h-.02l-.05.01a.39.39 0 01-.05.03c-.04.02-.04.02-.02.04l.04.01.02.01-.03.02-.04.01c-.01.01-.02 0-.04-.02-.02-.03-.02-.03 0-.04 0-.01 0-.02-.02-.02l-.04-.01c0-.05-.07 0-.08.06l-.02.02c0-.02-.04.12-.03.15.01.04.11.06.17.02.04-.03.08-.02.13 0 .05.04.17.05.2.03.05-.07-.09-.14-.14-.18zm1.78-1.05v-.02H7.4c0-.01 0 0 0 0l.02.02zm-.1.83v.02c0 .01.01.02.01 0l-.01-.02zm-.17.01v.02l.02.01v-.01l-.02-.02zm1.73 2.82v-.01.01zm-.02.04v.01c0 .02 0 .02 0 0v-.01zm-.03-.27v0zm0 .03h-.01c0-.01 0 0 0 0zm-.04-.11v-.01V9.83zm-.01-.07v0zm-.02.04c0 .02-.02.03-.03.03l-.01.01v.01h.02l.03-.06c0-.02 0-.01-.01.01zm-.05.6c0-.05-.01-.05-.01 0V10.39zm-.02-.38h.01V10v-.03-.09-.02-.03l-.04-.07c-.02 0-.03-.02-.04-.03l-.03.04c-.02.04-.03.04-.03.02a.2.2 0 010-.05v-.03h-.03c0 .02-.01.02-.02.03h.01l.01.02.01.02c.01 0 0 0 0 0-.02.01-.02.01-.01.02v.04h.03l.02.02v.1l-.01.02c-.01.01 0 .01 0 0l.02.01c0 .03.04.02.04-.01l.02-.03c.01-.02.02-.01.02.03l.02.04zm-.16-.08v-.05.05c-.01.02-.01.02 0 0zm-.04.28v0zm.1-.08v-.05l-.04.15-.03.09c-.02.03-.03.04-.03.02l-.01-.03c-.02-.04-.02-.04 0-.08a1.13 1.13 0 01.02-.07l-.01-.01-.03-.01c-.01-.02-.02-.02-.01 0 0 0 0 .03-.02.03a.05.05 0 00-.03.04l-.01.03a.1.1 0 00-.02.03c0 .01 0 .02-.02.03v-.03c-.01-.01-.03 0-.04.02l-.04.07-.01.02-.02.02v0c0-.02-.02.01-.03.04l-.05.1-.06.04a.42.42 0 00-.08.08l-.01.01-.01.01c-.01 0-.05.1-.05.13l-.01.04-.03.07a1.31 1.31 0 01-.06.23c-.01.01-.02.02 0 .04.01.02.02.01.06-.02a.14.14 0 01.06-.05c.03 0 .04-.01.05-.03.01-.03.04-.05.12-.1l.04-.02h.01c.01 0 .02.07 0 .1 0 .02 0 0 .04-.04.03-.06.04-.05 0 0-.02.04-.02.06 0 .03s.02-.02 0 .02c0 .01 0 .01 0 0v.04.05l.02.01.02-.02c.01-.02.01-.02.02 0l.02-.02a.23.23 0 01.04-.04l.02-.03a3.04 3.04 0 01.13-.25l.03-.07.02-.07.01-.06.01-.07v-.05-.02-.04-.06a.1.1 0 010-.05 1.02 1.02 0 00.02-.1v-.03-.07zm0 .85h-.01v-.04-.04.01l-.01.03a.31.31 0 01-.04.11l-.01.03v.03l-.02.03.05-.09.01-.02s.03-.03.03-.05zm-.1.16v-.01l-.03.04a.8.8 0 01-.06.09.69.69 0 00-.07.1l.01.02c.02 0 .03-.02.06-.07l.03-.06.04-.05.02-.06zm-.23.11l-.03.01a4.05 4.05 0 000 .08l.01-.02.02-.02c.02-.06.02-.06 0-.05zm-.06-.15c0 .01 0 0 0 0 .01 0 0 0 0 0zm-.25-3.83v-.02V7.28zm.25-.07V7.2v.01zm-3.17-.42v-.02c-.02 0-.03 0-.03.02 0 .01.02.02.03 0zm-.15.05l.02-.01-.01-.02s-.02 0-.02.02l.01.01zm-.24.1c.01.02.03 0 .03-.03h-.03c-.02 0-.02.03 0 .04zm-.04-.01l-.01.01c0 .01 0 .02.01.01.02-.01.01-.02 0-.02zm.91 1.13l.04-.02-.03-.01-.03.01c0 .01 0 .02.02.02zm-.33-.03h.02-.02zm-.5-.13a.9.9 0 01.06.03l.02-.03c0-.04 0-.04-.06-.04l-.06.01.05.03zm-.17-.23l.01-.03c0-.03 0-.04-.02-.02-.01.01 0 .05.01.05zm-.03.09v.05c.03 0 .05-.02.05-.06 0-.05 0-.06-.03-.05-.02 0-.02.02-.02.06zm-.23.02c0 .01 0 .02.01.01.02-.01.02-.02 0-.02-.01 0-.02 0-.01.02zM7.8 9.05l.04.11a.7.7 0 01.05.16l.03.1.07.13c.01.07.04.18.07.17V9.7l.01-.08c0-.05-.05-.11-.08-.13l-.03-.03a.21.21 0 00-.02-.06c-.03-.03-.03-.05-.04-.14 0-.07 0-.1.01-.06l.02.02.04.05.05.06.02.04.02.03s.02-.05.01-.07v-.01l.03-.04v-.09A.45.45 0 008 9c-.06-.08-.07-.11-.05-.17 0-.05.04-.06.05-.02l.02.04v.02c-.02 0-.02.05 0 .07.02 0 .03 0 .03-.04 0-.02 0-.03-.02-.04-.02-.03-.02-.06 0-.08.02-.02.03-.03.02-.05 0-.01 0-.02 0 0 .02.02.05 0 .06-.05a.3.3 0 00.02-.1l-.01-.02v-.05c0-.08 0-.12-.03-.13h-.01v-.01c.01-.02 0-.06-.04-.12A.38.38 0 008 8.16c-.02 0 0-.08 0-.1.02 0 .01-.02-.01-.03h-.03c0 .03-.01.02-.02 0A.05.05 0 007.92 8c-.02-.01-.03-.05-.02-.05l.02-.04c0-.03.01-.04.02-.03l.01.03c0 .04.02.06.03.03H8c.01 0 .02.01.02.04.01.04.02.05.03.05.01 0 .03.02.03.04l.04.1h.02v-.06a.33.33 0 00-.05-.1.33.33 0 01-.04-.07c0-.01.01-.05 0-.07v-.05c.01-.03.02-.03.03-.01.02.02.03 0 .02-.14 0-.1 0-.11-.02-.16a.47.47 0 01-.03-.07c0-.06-.08-.16-.08-.12 0 .02 0 .02-.01 0s-.02-.02-.01 0V7.3l-.03-.03-.02-.01v-.02l.02-.05c0-.1-.04-.12.02-.1h.03s.04.02.04.04h.05c0 .01 0 0 0 0-.02-.01-.02-.02-.02-.05 0-.03 0-.04.02-.03.02 0 .02.01.02.02.02.03.03.04.03.02v-.01-.02-.02c.01 0 .03.06.02.09v.07c-.01.02 0 .06.02.1 0 .03.03.08.05.11l.04.08v-.05-.02-.05l-.01-.03c-.02-.02-.02-.05 0-.03l-.01-.02-.02-.03-.01-.02c-.01 0-.02-.02-.02-.06v-.03h.02c0 .01 0 .01 0 0l.03.01h.01a4.36 4.36 0 00-.3-.4l-.01-.02-.02-.02-.03-.04a.27.27 0 00-.05-.03c-.05-.02-.03-.01-.05-.04-.02-.03-.07-.05-.06-.03 0 .01 0 0 0 0 0-.02-.02-.03-.04-.04l-.04-.01-.02-.01v.02c.02.02.02.03 0 .02 0-.01 0-.01 0 0H7.6l-.05-.03h-.04c0 .02-.01 0-.05-.03l-.01-.02-.03-.03v-.01l-.01-.02-.06-.03h-.03c.01.02 0 .02-.02.01a.17.17 0 01-.06-.03.26.26 0 00-.07-.03.85.85 0 01-.08-.04h-.03l-.01.01c-.03 0-.05-.01-.03-.02l.03-.01a1 1 0 01.04-.02v-.03l-.02-.02a.6.6 0 01-.03-.02.17.17 0 00-.05-.02c-.04 0-.08-.03-.08-.04 0-.02-.05-.04-.07-.03l-.02.02-.02.01h-.03c-.07-.02-.19-.01-.2.01l-.01.01.02.02h-.13s.03.06.06.07c.01 0 .02.01.01.02l-.04-.02-.06-.03c-.03-.01-.03-.01-.01.01.02.02.02.02 0 .01-.04-.01-.04 0 0 .02H6.4c-.02 0-.03 0-.04-.03a.2.2 0 00-.02-.04v.04h-.02l.02.04c.01.02.02.02.01.04 0 .03.02.05.06.05.04 0 .07.03.07.07 0 .01 0 .01 0 0-.02-.03-.05-.06-.07-.05v.03l-.01.05c-.02.03-.08.03-.1 0h.03c.02.01.03 0 .04-.03l-.01-.05a.17.17 0 01-.03-.07.17.17 0 00-.03-.05v-.04c0-.02-.02-.04-.05-.05-.01 0-.02 0-.01-.01l-.01-.02c-.01 0-.02 0-.01.02h-.01l-.01.03-.02.04v.02l.01.02v.02s0 .02.03.03c.06.06.05.07-.03.03a.8.8 0 00-.12-.06A1.25 1.25 0 016 6.26l.01.02c.04.03.05.04.04.06h-.02c-.01-.01-.03-.02-.07-.01h-.08c0-.02-.01-.02-.02-.02l-.03.02c-.04 0-.1.03-.1.04 0 .02-.03.02-.05 0-.02 0-.02-.03 0-.02.02 0 .01-.02 0-.04h-.06v.04l.02.03c.02.02 0 .05-.02.03h-.06c-.03.03-.03.03-.02.06.02.02.02.02-.02.01a.26.26 0 01-.06-.02l-.02.01.03.03c.01 0 .02.03 0 .03a.17.17 0 01-.08-.06.1.1 0 01-.01-.04l-.03-.03c-.04-.02-.01-.02.07 0s.09.02.11 0c.02-.01.03-.03.02-.04a.68.68 0 00-.3-.14c-.04 0-.05 0-.03-.02.02 0 .02 0-.01-.02l-.04-.01h-.01c0-.02 0-.02-.02-.02l-.03.02a.05.05 0 00-.03.02h-.01l.01-.03h-.02a.11.11 0 00-.04.03H5l-.04.01c-.02.01-.03.02-.04 0h-.03v.02h-.04c-.01 0-.02 0 0 .02s-.02.03-.04.01H4.8h-.02v.01l.02.01c.04-.02.02.02-.03.05a.23.23 0 00-.07.09c0 .02-.02.04-.03.04l-.01.01-.01.01s-.02 0-.03.02l-.04.02c-.01 0-.02 0-.02.02l-.01.02-.06.02c-.04.03-.06.08-.04.11v.04c-.02.02-.02.02 0 .01.03 0 .03 0 .01.01-.02.03-.02.04.03.05l.08-.02.04-.05h.01l.01.04.01.02.01.02c0 .01 0 .03.02.05l.01.03v.03c.02.03.06.03.06 0l.02-.01c.04 0 .07-.03.06-.08 0-.03 0-.04.02-.05a.2.2 0 00.05-.04v-.04l-.04-.02-.01-.03c0-.05.03-.09.07-.11.05-.03.07-.05.06-.07-.01-.02.04-.05.08-.05.05.01.06.03.03.05-.1.09-.11.1-.1.12v.05c0 .05.05.07.12.06l.08-.01c.03 0 .07.02.06.03l-.08.02c-.08 0-.1 0-.1.03l.01.02c.02 0 .02.02.02.04 0 .04-.02.05-.04.02-.04-.04-.07 0-.07.07 0 .04 0 .05-.02.05 0 0-.02 0-.02.02s-.04.01-.05 0H4.8l-.08.03L4.65 7c-.06 0-.09-.03-.08-.06 0-.02.02-.03.03-.03.01-.01.02-.02 0-.03v-.04c.02-.02-.02-.02-.03 0-.01.02-.03.03-.03.02v.05c0 .1 0 .12-.03.12-.08 0-.08 0-.1.04 0 .02 0 .02 0 0-.01 0-.02 0-.04.04a.16.16 0 01-.07.05c-.01.01-.03.02-.03.04l-.05.04c-.03.02-.04.02-.05 0-.02 0-.02 0-.03.02 0 .03 0 .04-.03.04-.05-.01-.07 0-.07.02l.01.02c.05 0 .1.07.09.13l-.02.07c-.02.04-.02.04-.11.04l-.11-.01h-.04c-.02.02-.03.03-.03.1l-.03.1c-.02.04-.02.06-.01.07v.06c0 .03 0 .03.03.02.03 0 .04 0 .05.03.02.02.03.02.06.01L4 7.94c.03 0 .05 0 .05-.02l.03-.02c.02 0 .05-.07.05-.1s.06-.1.1-.12c.03 0 .04-.02.05-.05 0-.05.05-.08.09-.05.01.01.03 0 .08-.02a.31.31 0 01.07-.04l.06.07c.03.03.08.09.12.11.08.05.1.08.09.14-.01.04 0 .04.02 0 .03-.04.04-.05.02-.06v-.04h.04c.01.02.03.02.03.02 0-.01-.07-.07-.1-.07v-.02l-.03-.01-.06-.07a.22.22 0 00-.05-.06l-.01-.03c0-.05.04-.07.05-.03h.03l.03.05.05.05c.02 0 .05.03.08.05.04.03.05.05.05.08l.05.1.03.06c-.01.01.04.08.07.08v-.02c0-.02 0-.03.03-.04.04-.03.03-.06-.03-.05V7.8v-.03c-.03-.02-.02-.05 0-.04l.04-.01c.02-.05.1-.02.1.03v.03c.01 0 .02.01.02.04v.03l.02.03.03.04.06.03c.02.02.03.02.05 0 .01-.03.02-.03.05 0 .04.02.09.03.1 0l.03-.01h.04V8l-.01.14c-.03.1-.06.13-.12.1-.02-.03-.04-.03-.07-.01-.04.02-.07.02-.13 0L5.2 8.2c-.04 0-.08-.02-.08-.03 0 0-.01-.02-.03-.02-.04-.02-.1.02-.1.06l-.01.06c-.02.02-.03.02-.08 0a.28.28 0 00-.08-.04.05.05 0 01-.04-.03c-.02-.02-.1-.07-.12-.05-.01 0-.12-.05-.12-.07l.03-.03c.02-.03.02-.04.01-.06v-.05c.02-.02.02-.02 0-.01l-.02-.01H4.5l-.17.01c-.1 0-.21.03-.27.09-.02.01-.14 0-.15-.01-.01-.03-.02-.02-.04.03a.18.18 0 01-.07.08c-.05.03-.1.12-.1.16 0 .04-.05.1-.12.13a.49.49 0 00-.13.17l-.03.05a.93.93 0 00-.06.1c-.04.06-.04.07-.03.1.01.02.01.05 0 .14-.01.06-.05.17-.07.17v.12c0 .03 0 .04.02.05l.02.03.04.07.04.1c0 .06.1.14.16.2.03.02.04.02.16 0 .04-.02.08-.01.11 0 .04 0 .07 0 .14-.03s.17-.08.25-.03c.01.01.03.03.03.05 0 .04.03.05.1.04.05-.01.06 0 .1.03.02.02.04.05.03.06v.1l-.03.09c-.01.02.01.07.1.15a.6.6 0 01.14.29l.02.1c.01.04.01.06-.01.08a.36.36 0 00-.06.2c.01.08.07.16.12.22l.04.12c.01.09.04.14.07.17.03.02.1.16.1.18-.02.02.01.07.04.08h.06l.1-.02c.1-.01.22-.05.29-.15l.07-.09a.15.15 0 00.05-.1c0-.05 0-.05.06-.08.05-.03.06-.03.06-.08V11c0-.04 0-.05.02-.07a.5.5 0 00.06-.06.22.22 0 01.08-.06c.02 0 .05-.03.07-.05.03-.03.03-.04.04-.15v-.13l-.02-.08v-.1c-.02-.03-.01-.05.02-.1a6.72 6.72 0 00.29-.34.44.44 0 00.16-.27c0-.05.02-.1.03-.11v-.1c0-.06 0-.07-.03-.05a4.16 4.16 0 01-.25.08c0-.02-.02-.03-.03-.05l-.02-.04c.02-.01-.07-.11-.14-.16a.19.19 0 01-.07-.1.25.25 0 00-.05-.1c-.03-.02-.04-.05-.06-.1a.26.26 0 00-.05-.12.2.2 0 01-.04-.06.43.43 0 00-.03-.09 4.94 4.94 0 00-.1-.21c.04.07.07.08.06.03v-.01l.07.1.06.1.03.04c.04.03.07.09.08.14 0 .03.02.05.05.08l.05.06L6 9l.05.1c.01.06.05.17.07.18l.05-.01a.1.1 0 01.04-.03l.04-.01.03-.01.03-.03a.28.28 0 01.07-.04.14.14 0 00.05-.06c.01-.02.04-.04.06-.04L6.53 9c0-.02 0-.03.02-.03 0 0 .02 0 .01-.01l.02-.04c.02 0 .02-.02.02-.02v-.06l.03-.05.01-.05a1.29 1.29 0 00-.03-.04.15.15 0 00-.05-.04c-.04-.01-.06-.03-.07-.09l-.02-.04-.02.05c-.05.09-.14.08-.14 0 0-.05-.02-.06-.03-.02 0 .03 0 .03-.02-.02a.18.18 0 00-.04-.07l-.05-.07c-.03-.06-.03-.06-.02-.07.04-.03.06-.02.1.04.03.06.11.15.18.13h.03V8.5c0-.03.02-.02.03.02l.03.04c.08.03.2.05.29.02l.04.04c.06.07.1.11.11.1h.01l-.01.02c-.02 0-.02 0 .02.05s.07.05.07 0c0-.04 0-.04.02 0l.02.06c.01.1.05.19.1.27l.04.09.04.08.05.11c.04.08.05.08.07.01a.45.45 0 00-.01-.25c-.02-.06-.02-.07 0-.08v-.02l.01-.01c.01 0 .03-.05.05-.13l.03-.05c.01 0 .02-.03.01-.06v-.03h.04l.03-.01v-.03c0-.04.02-.01.05.04l.05.07.02.04.01.02c.02 0 .04.07.05.1v.05c.03.01.04 0 .05-.03V9l.03.05zm-.33.4c-.04-.06-.05-.07-.05-.04 0 .04.03.13.04.15.01.02.02.02.03 0 .02-.02.02-.05-.02-.11zm-.57 3.23h.02l-.01-.01s-.01 0 0 0zm-.4-3.4h.02c.01-.01 0-.02-.01-.02l-.01.01zm-.05 1.66v-.01-.02.02c-.01 0 0 0 0 0zm-.03 1.37h.03v-.02c-.02 0-.03 0-.03.02zm-.4-1.36l-.03.1c0 .08.02.11.08.1l.04-.03c.06-.08.1-.21.15-.33l.01-.03.01-.04c0-.03 0-.03.02-.02l.02-.05-.03-.12v.01l-.02.03a.1.1 0 01-.02.05.44.44 0 00-.05.05.17.17 0 01-.06.05c-.07.02-.1.07-.09.14 0 .05 0 .06-.02.1zm-1.63 2.5v-.02.03zm-.4.09h.01v-.01H4zm3.19-.58h-.04l-.03.01h-.01-.01l-.02.02h-.01-.04v-.01l-.07.01-.05.01V13c.02-.01.02-.02.01-.02l-.01.02-.04.03a.11.11 0 00-.05.03c-.02.02-.04.02-.04 0h-.01c-.01.02-.08.05-.13.06H6.6c0-.01-.05 0-.07.02-.01.02-.02.02-.07.02s-.06 0-.09.02l-.01.01-.04.02a.38.38 0 00-.13.05l-.05.03a.55.55 0 01-.08.05.25.25 0 00-.06.03h-.01l-.03.03c-.02.03-.06.05-.08.05 0 0 0-.03.02-.03l.02-.02c.02-.02.02-.02 0-.01 0 0-.02 0 0 0v-.02c.02 0 .06-.04.06-.05h-.05c-.1 0-.18 0-.17-.01l-.01-.02c-.03-.02-.13 0-.13.03l-.03.01-.02.01h-.02a.1.1 0 00-.05.02.26.26 0 01-.04.01.26.26 0 00-.1.05c-.02.02-.05.03-.05.01H5.3l-.03-.01c-.02-.02-.02-.02-.03-.01l-.14.05a.53.53 0 01-.15 0 .54.54 0 00-.2 0c0 .02-.01.02-.02.01a.6.6 0 00-.2 0 .24.24 0 01-.12.01c-.04 0-.07-.01-.07-.02l-.03.01c-.02.02-.02.02-.04 0 0-.01-.01-.02-.03 0h-.04c0-.01 0-.01 0 0 .02.02.02.02 0 .03h-.03l-.01.01-.03.01-.02.02h.02c.03 0 .02 0-.01.02l-.04.03h-.05c-.07 0-.33 0-.34.04l.1.05h.04c.04 0 .04 0 .03.01l-.02.01h.02l.02.02h-.01a4.4 4.4 0 003.33-.75zm-3.62-.43l-.03-.01c-.02-.01-.02-.01 0 0 .03.02.05.03.03.01zm-.05 1.08a.1.1 0 01-.02-.03c0-.02-.07-.05-.11-.04l-.03.02c0 .02-.01.02-.04.02h-.01a4.2 4.2 0 00.21.05c.02 0 .02 0 0-.02zM3.3 6.65h.02l.01.02v.01l.03.02.05-.05a.2.2 0 00.03-.07l.04-.04c.04-.02.05-.04.03-.05h.01c.01-.01.02-.01.01-.03 0-.02 0-.02.04-.03.02 0 .05-.02.06-.04.02-.02.02-.02 0 0 0 .03 0 .03.01.02l.06-.03a.2.2 0 00.07-.04c.02-.02-.12-.03-.12-.03l.18-.03c0-.02 0-.02.01 0 .02.02.12 0 .21-.05.06-.03.06-.03.05-.04a.16.16 0 00-.05-.01c-.02 0-.03 0-.02-.01.02 0 .02-.02.02-.03 0-.02 0-.02.02-.01l.02.02c0 .02.07.03.07.01 0-.02-.02-.06-.05-.07-.02-.01-.04-.05-.02-.05.01 0 .02 0 .01.01 0 .01.04.04.05.03.02 0 .01-.03-.01-.04L4.1 6l.03.01c.03.02.08 0 .08-.02 0 0 .01-.02.03-.02h.02l-.02-.01c-.03 0-.03-.03 0-.03h.02c0-.03-.02-.06-.03-.06-.05 0-.04-.02 0-.02h.01l.04.01c0 .01 0 .01 0 0 .03-.03.02-.04 0-.04l-.03-.01c0-.01 0-.02-.02-.01h-.02l.02-.02.04-.03.02-.02.02-.02.03-.01a.3.3 0 01.1-.06l.05-.01-.04-.02h-.09a.12.12 0 01-.05.02h-.06l-.04.02.03-.03c.02-.02.02-.02-.02-.01h-.04l.04-.02.04-.01c0-.01 0-.02-.03-.02h-.05a.7.7 0 00-.26-.01c-.03 0-.05.01-.05.02h-.1l-.06.02c.02 0 .03.02.01.03 0 .02 0 .02-.07 0-.06-.01-.07 0-.07.02s0 .02-.03 0l-.03.01H3.5c0-.02-.17.02-.18.05l-.03.02c-.04 0-.1.03-.13.05h.02l.02.02-.08.04-.13.05c0 .01.06.03.08.01 0 .02-.02.02-.04.03-.03 0-.03 0-.02.01l.02.02h.09c.08-.02.14-.01.14.02l.01.01.02.05-.01.07c-.03.03-.03.04 0 .03l.06.01v.04H3.3c-.01 0-.02 0-.01-.02-.02 0-.02.01-.02.02l-.01.01-.02.02c0 .02.01.04.04.02h.02v-.02c-.02-.02-.02-.02 0-.01.02 0 .03.01.02.02h.02v.01l-.05.04-.05.03c-.02.03-.03.04-.02.05l-.01.02v.04a.1.1 0 010 .05c-.01.02-.01.02.02 0 .03-.01.03-.01 0 .02-.02.03-.02.03 0 .09.01.07.03.08.06.07zm-.14 6.88c-.01-.02-.03-.02-.03-.01l.03.01zm-.14-.52v.01h.02L3 13zm.07.3l-.03-.02-.02-.02-.01-.03c0-.02-.01-.03-.03-.03l-.01-.02-.08-.07-.02-.02a.07.07 0 01-.01-.02l.04-.03h.01c0-.02.03-.04.06-.04h.01l.02-.01h.02L3 12.98h-.02-.02a.22.22 0 00-.09.03l-.03.02-.02.03h.01l.02.03c0 .03 0 .03-.01.02-.03 0-.03 0 .03.07l.02.04c.01.01-.01.02-.08 0-.06 0-.06 0-.08-.02 0-.02-.01-.02-.02-.02v.02H2.7a1.53 1.53 0 00-.1-.04h-.06a.26.26 0 01-.05-.04.1.1 0 00-.03-.01.1.1 0 01-.04-.02H2.4a1.1 1.1 0 01-.28-.12l.04.03.03.02h-.02l-.02-.01.02.02h.02l.01.02a4.23 4.23 0 00.48.25c.06.04.14.06.14.06l-.03-.02-.1-.07.06.02c.06.03.11.05.14.05a.9.9 0 01.08 0h.05c0-.01 0-.01 0 0 .01 0 .02 0 .03-.02v-.02l-.02-.01h.05zm-.16.11h-.03l.03.02h.03c.02 0 0-.02-.03-.02zM2.18 13l-.03-.02.02.02.01.01c.01 0 .03 0 .05.02.05.01.01-.01-.05-.03zm.01-1.03V12c.01 0 .02 0 .01-.01v-.02zm.18 1.11h-.01v.01c.01 0 .01 0 0 0zm.06-.71l-.01.01c0 .02 0 .02.01.01.02-.01.02-.02 0-.02zm.05 0l-.03.02c0 .02 0 .02.02.01.03 0 .03-.02 0-.02zm.16.8h-.01l.02.01-.01-.01zm.16-.1v-.01c0-.01 0-.02-.01 0 0 .01 0 .02.01.01zm-.13.04h.01c-.01 0-.01 0 0 0zm0 .02l.02.01c.03 0 .04 0 0 0h-.02zm.11.08l.03.01c.07.02.07 0 0-.08-.04-.04-.05-.05-.07-.04v.02l.01.02.01.02c.03 0 .03.01 0 0h-.04-.02v.01l.04.01.04.01v.02zm.09-.21h0zm-1.2-4.06c0 .01.08.03.1.02h.04l.04-.01-.02-.04c-.02-.04-.1-.05-.1-.02 0 .03-.01.06-.03.05h-.03zm0-.32l.02-.01v-.02l-.01.02v.01zm-.07.33c-.01-.02-.05-.03-.05 0l.03.01.02-.01zm.02-.11c-.01.01 0 .02.03.02.04 0 .07-.02.05-.04l-.04-.04c-.08-.1-.1-.11-.15-.1a.14.14 0 00-.05.04v.01l.04-.02h.04l.01.02.02.02.02.02.01.02.01.02c.02 0 .02.01 0 .03zm.29.12l-.03.01c0 .01 0 .02.02.02l.03-.01-.02-.02zm.04.42l-.01.02v.01l.02-.01v-.02zm.63-1.89a.1.1 0 01-.02-.02v.01c0 .01 0 .02.02.02v-.01zm.09-.15c-.01-.03-.04-.04-.04-.01l.02.02.02-.01zm.23 0c-.02 0-.03 0-.04-.02 0-.01 0-.02-.01-.01-.02 0 0-.02.04-.06.04-.04 0-.03-.05.01a.44.44 0 00-.05.07c0 .02-.02.03-.02.03l-.02.02-.02.02-.01.02h.06c.05 0 .06 0 .05.02-.03.04 0 .02.04-.02l.04-.04c-.02.01-.02 0 0-.02.02-.03.02-.03-.01-.03zm0 .08c.02-.03 0-.02-.02.01s-.02.03-.01.04h.02l.01-.03V7.4zm-.65-.27l-.01.01v.01h.01v-.02zM2.38 7L2.36 7s0 .01 0 0h.02v-.01zm.08-.3h-.03v.02l.04-.02h-.01zm.06.01s-.02 0-.02.02h.02V6.7zm.01-.06v-.02h-.01c0-.02-.02-.04-.04-.05v-.01-.02.01c-.02 0-.03.02-.05.04a.37.37 0 01-.04.06c-.02.02-.02.02 0 0l.02.01h.03c.03-.03.04-.03.05-.02h.04zm.06 0l-.01.01h.01zm.13-.27l-.02.02.02-.02c.03-.02.03-.02 0 0zm.06.06h.02-.02zm0-.03l-.03.01c-.03.02-.06.06-.03.06.02 0 .04-.02.05-.05l.01-.02zm-1.58.89s0-.02.02-.03v-.03l-.01.01-.01.05zm-.09-.17V7.1v.01l-.03.02c-.02.02-.03.03-.01.02l.03-.03.01-.01zm1 5.25l.01-.03c.02 0 .02 0 .01.02l.01.02c.02 0 .02 0 .01.02l-.01.01-.01.01.02.01c.02 0 .03.01.03.02l.02.01c.01 0 .02 0 0 0 0-.02 0-.02.02 0l.05.01c.03 0 .05-.01.01-.02a.24.24 0 01-.1-.07c0-.01 0-.02-.02-.03-.02-.01-.02-.01 0-.01l-.01-.03c-.02-.04-.02-.05 0-.05v-.02c0-.02.02-.03.03-.04.02-.01.02-.05 0-.05-.05-.01-.07-.08-.03-.08l.02-.02v-.07-.01-.01l-.03-.04c-.01-.02-.01-.03.03-.01.04.01.04.01.04-.02v-.04c0-.01 0-.02.02-.01.07 0 .1 0 .12-.03v-.06l-.02-.03a.09.09 0 00-.03-.04l-.02-.03h.01a.2.2 0 00.07.04c.05.01.06 0 .08-.02a.18.18 0 00.03-.07c0-.06.02-.1.03-.08V11.54l.04-.06a.15.15 0 000-.1l.01-.08c.02-.03.13-.09.17-.08.03 0 .07-.03.07-.05l.01-.06.02-.06V11v-.24c.05-.07.1-.14.13-.22 0-.03 0-.07-.02-.1-.02-.05-.02-.07-.05-.07a.29.29 0 01-.1-.07c-.05-.06-.08-.07-.12-.08a.18.18 0 01-.07-.02c-.02-.01-.04-.02-.05 0-.02 0-.03 0-.03-.03 0-.02-.02-.04-.07-.07a3.31 3.31 0 00-.07-.04l-.02.04c-.01.03-.02.04-.03.03l.01-.04c.03-.03.02-.05-.02-.07-.02 0-.04 0-.05.03-.01.03-.01.04-.02 0 0 0 0-.04.02-.07.03-.04.03-.04 0-.06a.25.25 0 01-.03-.07c0-.03-.03-.08-.05-.11-.02-.05-.03-.06-.1-.07-.06-.02-.06-.02-.09-.1-.02-.04-.03-.06-.05-.07-.02 0-.02 0-.01-.03v-.04c-.02 0-.03-.02-.03-.04s0-.02-.05 0H1.8l-.04-.02c-.02 0-.03 0-.04-.03 0-.02-.01-.03-.02-.03l-.01-.02v.01l-.02.02-.03.01c-.03.03-.03 0 0-.03.03-.04.02-.05-.02-.02l-.05.03h-.02l-.02.02h-.02l-.01.02-.04.06c-.04.05-.04.05-.05.02-.01-.05-.03-.06-.07-.04-.03.02-.04.02-.05 0a.18.18 0 01-.01-.06c0-.04 0-.05.04-.14.03-.08.04-.1.03-.12 0-.02-.01-.03-.05-.03-.08 0-.08 0-.06-.03l.04-.07c0-.03.02-.05.02-.04l.02-.03a.68.68 0 01.04-.07c.03-.05.03-.05-.01-.05-.05 0-.07.03-.09.07-.01.04-.05.08-.06.07h-.03c-.04.02-.06 0-.05-.1a.4.4 0 01.04-.15l.05-.1.02-.05c.02-.05.06-.11.08-.1l.03-.03c.03-.03.08-.03.12 0 .02 0 .02 0 .03-.03.01-.03.02-.03.06-.03.02 0 .04.01.05.03h.02c.03-.02.04.04.02.08l-.02.06v.1l.03-.03a.66.66 0 00.05-.18l.02-.07c0-.03.05-.09.06-.08l.04-.04.05-.04s.02 0 .03-.02l.03-.02s.02 0 .02-.02v-.02h.02v-.02L1.99 8 2 7.97c0-.02.02-.09.04-.1v.02c-.02.04-.02.05 0 .02a.17.17 0 00.02-.04c0-.02.01-.02.02-.02l.04-.04.04-.04.02-.01s0-.02.04-.02c.04-.01.05-.02.04-.03 0-.04.05-.1.1-.11l.06-.04a.2.2 0 01.03-.02h.04c.03-.02.03-.02 0 0a.1.1 0 01-.03.03c-.01 0-.03.04-.02.05l.04-.02a.22.22 0 01.05-.03c.03 0 .09-.04.1-.06 0-.02 0-.02 0 0h.02c.02-.01.02-.02.01-.02v-.02c0-.02 0-.02-.02 0-.03.04-.04.05-.06.04-.04 0-.05-.04-.04-.08V7.4c-.02 0-.01 0 0 0l.05-.04c0-.01 0-.02-.04-.02s-.09.03-.15.09l.02-.02a.61.61 0 01.14-.12c.02-.01.04-.02.1-.01.07 0 .08 0 .12-.02a.43.43 0 01.08-.05c.04-.01.04-.02.06-.05V7.1l-.02-.03.01-.02-.02-.01h-.02l-.02-.02v-.07a.3.3 0 000-.1v-.08l-.04.04c-.05.06-.1.08-.1.05H2.7c-.02 0-.02-.01 0-.05.03-.05.03-.06 0-.06l-.01-.02c0-.02-.02-.04-.04-.04h-.09l-.03.07a.21.21 0 01-.05.09c-.02.02-.02.03-.01.04 0 .02 0 .06-.03.1l-.06.05-.05.03-.01.05c-.03.08-.03.09-.06.1-.03.02-.03.02-.03-.02v-.06c.05-.09.05-.1 0-.09l-.03-.01v-.01L2.16 7c0-.02-.03-.03-.05-.02-.03 0-.03 0-.02-.04V6.9c-.02 0 0-.03.04-.1.05-.04.1-.1.13-.1l.02-.01c0-.02.04-.04.06-.05.02 0 .13-.1.12-.11h.02l.02.01c0 .01 0 .01 0 0l.03-.02c.02 0 .04-.02.05-.03l.02-.01v-.02l.01-.04.02-.01v-.03l-.03-.01.05-.01c.05 0 .07-.01.07-.02.01-.03.01-.02.03 0v.02h.01c.01 0 .02 0 .01.01 0 0 0 .02.02.02.04.03.02.07-.04.1l-.02.03c0 .02 0 .02-.03.03h-.04l-.06.04h.05l.07.01.01.02c0 .03 0 .06.02.04h.02l.02.03.03.01c.02.01.02-.02 0-.05-.02-.03 0-.04.02-.01.03.02.03.02.05 0 .02-.02.02-.03.02-.06l-.01-.03-.02-.02.02-.04c.02-.02.03-.01.04.03 0 .03.03.03.04 0H3l.04-.03.04-.03-.03-.01c-.02 0-.03-.01-.03-.02 0 0 0-.02-.02-.02-.05 0-.06-.05-.02-.06.01 0 .01 0 0 0v-.02c.01 0 .02 0 .02-.02h-.02s-.01 0 0 0c0-.02 0-.02-.02-.02h-.01c0-.02-.03-.04-.04-.02-.01 0-.02 0-.03-.02 0-.02-.01-.03-.02-.03 0 0-.01 0 0 0 .01-.03-.02-.04-.05-.04l-.04.02c0 .01 0 .01 0 0h-.04c-.05.02-.08.03-.09.06v.03c-.01.02-.01.02-.02.01v-.03l.02-.03.02-.02c.03-.02.03-.02 0-.01-.04 0-.07.02-.1.06-.04.04-.04.04-.04.06 0 .02.01.03.04.03.02 0 .04 0 .03.01-.02.01-.03.03-.02.03l-.02.03-.04.02-.02.02c0 .02-.02.03-.02.01l.01-.03v-.03l-.02.01c-.03.03-.04.03-.02 0v-.02c-.02 0-.02-.01 0-.03v-.06l.02-.03.04-.02s.07-.04.08-.06l-.11.03a.07.07 0 00-.03.04c0 .03-.02.04-.04.06a.1.1 0 00-.04.04c-.02.02 0 .04.02.04v.01l-.01.01c.01 0 0 .03-.04.04a.06.06 0 00-.03.03c0 .02-.01.02-.02.02V6.5l.01-.03v-.01h.03v-.02c0-.03-.01-.03-.04 0l-.02.01c.02 0 .02.01 0 .03-.04.03-.13.04-.14.02 0-.02-.06 0-.06.01h.02l.03-.01-.02.01a.07.07 0 00-.04.04l-.02.03v-.01c.01-.03-.01-.03-.07-.01h-.04l.02-.02c.03 0 0-.02-.02-.01a.1.1 0 01-.05 0H1.8 1.8c-.02.02-.03.02-.03 0 0-.01 0-.01 0 0-.02 0-.04.02-.05.03a.39.39 0 00-.11.05l-.04.02c-.03-.01 0-.03-.07-.01h-.02-.03-.01l-.02.02-.03.02a3.9 3.9 0 00-.18.2l-.05.05.02-.01c.01-.01.01-.01 0 0l-.01.03-.04.03a5.53 5.53 0 00-.1.16h.01l.02-.01c.02 0 .02 0 0 .02a.5.5 0 01-.06.06.94.94 0 00-.06.05l-.02.02.02-.02c.02 0 .04-.02.05-.04a.31.31 0 01.04-.02v-.02l.04-.02a.96.96 0 00.06-.06c-.01 0 0-.02.02-.03l.02-.02A.26.26 0 011.23 7l-.06.06c-.03.03 0 .02.02 0a.19.19 0 01.03-.03L1.24 7c.01-.02.02-.02.02 0h.01v.05c0 .02 0 .02.02 0 .01-.01 0 0 0 0l-.04.09.04-.07v-.01l.02-.02-.01.03-.02.02v.01l.02-.02.01-.01-.03.04-.01.02v.02l-.02.04.01-.01.01-.02v-.01c0-.02.01-.03.02-.03 0 .02-.02.07 0 .06l-.02.04c-.03.04-.03.05 0 .02v.01l-.02.03v.01l-.01.03c-.01.02-.02.03 0 .03v.01H1.2c-.01.02 0 .1.02.1v-.04l.02-.05v.09c-.02.02-.02.02-.04 0l-.02.03a.6.6 0 01-.06.11c-.05.08-.1.16-.13.24v.03l-.02.06v.01l-.03.08-.01.06v.02c.02.01.02.04 0 .13a.63.63 0 00-.02.12c0 .03 0 .03-.02.05-.02.01-.02 0 0 .08a.1.1 0 010 .04c-.02.03-.01.13 0 .11v-.05l.01-.06a.63.63 0 00.03-.13v-.08l.02-.05c.02-.05.02-.05.03-.03v.06c-.02.03-.02.08-.02.12v.16c0 .08-.01.14-.03.18l-.02.04c0 .02.01.08.03.1l.02.02.04.07c.03.04.03.04.06.02s.04-.01.05.06c0 .04.05.09.09.1l.01.06v.11c.02.01.03.04.02.06 0 .02 0 .02.02.03l.03.03c.01.03.03.03.03 0 0-.02.05-.06.06-.05v.07c0 .07-.02.26-.05.27v.03c0 .03-.01.04-.02.04s-.03.12-.02.16c0 .02.01.03.02.03.02 0 .02.04 0 .06-.02.03 0 .12.03.17l.07.13a2.6 2.6 0 00.1.26c0 .02.06.09.12.14a.3.3 0 01.13.21c.02.1.04.22.04.33l.01.08v.02l.01.06c.02.05.03.1.02.2l.01.1c0 .02.02.04.01.05v.05l.02.07v.02c.01 0 .02-.02.01-.04v-.02c.02 0 .03.03.04.1v.07h-.04v.02c.04 0 .05.02.06.09l-.02-.02-.02-.02v.02c.02 0 .03.02.03.04 0 .03 0 .03.01.02l.01-.02v.06h.02l.04.06.03.05v.01l.03.01h.01l.01.02c.01 0 .02-.01.01-.03zm-1.1-2.52v-.02.02zm-.6-1.13v.03-.03zm1.36-2.3h.01c.02.01.06 0 .07-.02l.07-.05.02-.02-.03.03-.03.03h.01c.02 0 .03 0 0 .01l-.02.02h.05l.05-.01-.03.01-.05.02c-.01 0-.02 0-.03.02 0 .01.02.02.03.01l.01.01c0 .02.1-.02.13-.04.01-.01.02-.02.03-.01.03.01.1-.01.08-.03l.02-.01.02-.01-.01-.01-.02-.01v-.04c.01-.04.01-.05.03-.06l.02-.02-.04.01-.03.02-.02.03c-.02.03-.03.04-.02.01 0-.02 0-.02-.03 0h-.02-.06c.02-.02 0-.03-.02-.02h-.04a.16.16 0 00-.05.02l-.02.02-.04.05-.04.03zm.16-.18h.02L2 6.22l.02-.02c.02-.01.03-.02.02 0l.05-.04c.02-.02-.04 0-.1.04l-.05.04zm.08-.02s.01 0 0 0L2 6.22c-.01.02 0 .01.02 0zm.08-.04c-.03 0-.04.01-.06.04L2 6.24h.03c.01 0 .02 0 .03-.02h.01v.01c-.02 0-.02.01-.02.02l.05-.02a.3.3 0 01.07-.03c.03 0 .06-.03.07-.05H2.2c0-.03 0-.03-.02 0l-.01.02-.02.02h-.03c0-.01-.02-.02-.03-.01zm.03-.06h.01zm.05 0l.03-.02H2.2a.09.09 0 00-.04.02h.02zm.03-.04c.03 0 .04-.01.03-.02 0 0-.02 0-.03.02-.03 0-.03.01 0 0zm.05.1c.01-.02.02-.02 0-.02v.01zm.02.05v.02h-.03-.02v.02l.03.02c0 .02.01.02.02 0l.03-.01c.02 0 .04-.04.03-.04-.02 0-.02-.01 0-.03l.02-.02-.06.02c-.02 0-.04.03-.02.02zm0-.1h.02c0 .02.01.01.03 0 .02 0 .03 0 .01.01v.02a.1.1 0 00.07-.06c.01-.02 0-.02-.02-.02l-.02.02c0 .02-.02.02-.02 0l-.01.01c-.01.02-.02.02-.02 0l-.03.01zm.02-.04v-.01c0-.01 0 0 0 0v.01zm.05-.07c.02 0 .02 0 0 .01h.05c0 .02.02.01.03 0C2.43 6 2.42 6 2.4 6h-.04l-.03.01.01.01zm.12.09c0-.02 0-.01-.04 0 0 .01 0 .02-.02.02h.01c.02.02.06 0 .05-.02zm.02-.04l.03.01v.02l-.02.01h.12a.88.88 0 00.14-.04l.02-.01-.01-.02-.1.02c-.08.02-.1.02-.1 0l-.04-.01h-.05-.02c-.01.02 0 .03.03.02zm0-.05h.03V6v-.02h-.03L2.46 6c-.01.02 0 .03.01.03zm-.02-.06h.01v-.01h-.01zm.12.07h-.01v0zm0-.02h.01c0-.02-.01-.02-.02 0h.01zm-.01-.07c.02 0 .03 0 0 0-.02.02-.02.03 0 .03s.04 0 .1-.03h.01c-.01.01-.01.02.02.01h.01v.02h-.03c-.03 0-.04.01-.03.02L2.62 6c-.06.03-.04.03.08 0 .13-.02.15-.03.13-.04-.02 0-.01 0 0-.01l.03-.03.03-.01.04-.03.01-.01c-.02 0 0-.02.01-.03.03 0 .1-.03.16-.06a.77.77 0 01.08-.04l.03-.02.05-.03c.03 0 .06-.02.06-.03-.1-.04-.28.02-.37.05a.33.33 0 00-.09.04.06.06 0 01-.03.01l-.04.01a.29.29 0 01-.06.03c-.04.01-.06.02-.05.04h.06l.02-.02v.01c-.02.01-.02.01 0 0h.09l-.07.01-.06.03h-.01-.02-.01l-.06-.02c-.04.01-.05.02-.05.03l-.02.01-.02.02c-.02.02 0 .03.03.02zm1.04-.38H3.64 3.6zm.89.88c0-.01-.06-.08-.08-.08v.02l-.06.02a.2.2 0 00-.07.02s-.02 0-.02-.02c-.01-.01-.02-.02-.04 0-.04 0-.04.03-.01.03.02 0 .02 0 .01.02v.02c.02 0 .02.02 0 .03l.05.02c.07 0 .2-.02.22-.08zm-.46.38l.01-.01v-.02l-.01.02v.01zm-.02.22l.01-.03c.01 0 .02-.02.01-.03 0-.04-.07-.03-.08 0L3.93 7c-.02 0-.03.01-.03.03v.07c-.03.02-.03.03-.02.04h.04l.05-.02c.03 0 .06-.05.05-.08zm.24.08c.03-.02.02-.05 0-.05-.01 0-.03-.02-.03-.04L4.21 7l-.02-.04-.02-.04c-.02 0-.02 0 0-.03.03-.05.03-.07-.01-.06-.04 0-.04 0-.01-.03.01-.01.01-.01-.01-.02l-.04.02-.03.06-.01.04v.04c.02-.04.03-.02.02.02-.02.03-.01.04.01.03h.03v.05c0 .02-.01.03-.03.03-.02 0-.02 0-.01.02l-.01.03c-.02 0-.03.02-.03.03h.05c.02.01.03.02 0 .02a.12.12 0 00-.05.03c-.02.03-.02.03 0 .03l.07-.02.09-.02h.04v-.02l.02-.04zm.26-1.46l.01.02v.01c0 .02.06.04.08.02h.04l-.03.02c-.03 0-.04.01-.02.02.02 0 .02.01.01.01l.02.03c.04.02.04.02.05 0 0-.01.01-.03.02-.02l.02-.03c0-.02.02-.03.03-.03.02 0 .04.03.04.05 0 .02.06.02.08 0v-.01l-.05-.02a.36.36 0 00-.07-.04l-.03-.02H4.7l-.01-.01c0-.02-.04-.03-.04-.01v.02h-.01c-.02-.02-.13-.02-.12 0zm.25 0l.06.02c.02.01.11-.01.1-.03l-.1-.02h-.07c-.07 0-.06.02 0 .03zm.82.08c0 .02 0 .02.04.01l.04-.01h-.08zm.14.54v.02c.02.01.04 0 .04-.02 0-.01-.04-.02-.04 0zm.08-.1c.02 0 .03.02.04.03l.06.02h.04a1.73 1.73 0 00-.04-.03.15.15 0 01-.04-.04c0-.02.06-.11.08-.1l.01-.02s.04-.02.13-.03c.03 0 .05-.01.04-.02 0-.01-.05-.02-.07-.01h-.05c-.06 0-.14.02-.15.06-.01.01-.02.03-.03.02v.02l-.01.02-.02.03c0 .01 0 .02-.02.02s.01.03.03.04zm0-.4c0 .02.01.02.02 0v-.01l-.02.01zm.05 0h.06l-.04-.01h-.02zm.09 0h.02c.01 0 .01 0 0 0h-.02c-.01 0-.01 0 0 0zm.65.18h.03c0 .02.03.04.08.06.05.02.05.02.04 0 0-.03-.01-.03-.03-.04-.02 0-.03-.02-.03-.02-.01-.03-.1-.06-.1-.04v.02c-.02.01-.01.01.01.02zm.17.1l.06.02a.2.2 0 00.05 0l-.03-.03-.03-.01c0-.02-.03-.01-.04 0v.03zm.34.23c-.01 0-.01 0 0 0v.02h.01l-.01-.02zm.43.13c.02.02.1.04.1.03l-.06-.04a.46.46 0 01-.05-.02l-.01-.01.02.04zm.07.07l.02.02c.02.02.03.02.02 0l-.04-.02zm.06-.02l.03.02-.02-.02h-.01c-.02-.01-.02-.01 0 0zm.58 1.06v-.01.01zm0 .26l-.03-.03c-.03-.05-.04-.05-.02-.02l.02.07c-.01 0 0 .04 0 .07h.01v-.01-.01c0-.02 0-.01.02 0h.01l.01-.02c.02 0 0-.04-.02-.05zm.05.23a.5.5 0 00-.05-.13v.02s0 .01 0 0l.01.06c.01.04.02.1.01.12h-.01v-.01c0 .06 0 .07-.02.07s-.03.02-.03.08v.04l.02.03c.02.06.03.06.02 0 0-.04 0-.04-.02-.06-.01-.01-.02-.03 0-.02V8.2c.02 0 .03.01.02.03v.03c0 .02 0 .02.01 0v-.01c.02.01.01-.02 0-.04v-.02l.02.02c0 .04.02.04.01 0 0-.02 0-.02.02-.02l.01-.01c0-.02 0-.02.01 0v-.05a.7.7 0 01-.03-.11zm.02 1.1c-.02 0-.04-.05-.04-.09v-.06l-.03-.04-.01.02V9l.01.03.01.05.02.02v.02l.02.02h.02c0 .02 0 .01 0 0l.02.01c.02.03.02.03.01 0l-.03-.03zm.03.08l.01.01c0-.02-.01-.02-.01-.01zm.03.01v.03l.01.03c.01.02.02.02.01 0 0-.06-.01-.08-.02-.08v.02zm-.11.88h.01c.03 0 .03-.02.01-.01h-.02zm.11-.8s0 .01 0 0l.01.02h.01l-.01-.02c-.01-.02-.01-.02-.01 0zm0 .02c0-.05-.02-.08-.03-.08v.04c.02-.02.02-.02.02.01V9.31zm-.07-.12c.01.03.01.02 0 0a.09.09 0 000-.04h-.02l.02.04zm0 .14v-.06l-.02.05c0 .07 0 .07.01 0zm-.15-.72v.05l.01.07.02.03v-.03a.54.54 0 00-.03-.12zm-.11-1.25s.01.06.03.07l.05.14.05.1h.01v-.02a.44.44 0 01-.03-.04c-.02-.03-.02-.06-.01-.06l-.01-.03a1.02 1.02 0 01-.09-.17c-.01-.03-.02-.03 0-.02v.03zm.1 2.7h.02l-.01-.01zM8.1 9.9V9.9v.01zm-.03 0v-.03c0-.03 0-.03-.01-.02v.05zm-.01.2h.04c.03.02.1 0 .1 0l-.02-.02c-.01 0-.02 0-.02-.02H8.1l-.05-.01c0-.02-.04-.01-.05 0 0 .03.01.05.04.05zm-.15-.34v-.01.01zm0 .12l.01-.01v-.02.03zm.03-.13v.05l.02.08c0 .05.04.16.05.15l.03-.06c.02-.06.02-.06 0-.1a.14.14 0 010-.07l-.01-.04A.49.49 0 018 9.72l-.02-.02-.03-.07c-.01-.03-.06-.06-.06-.06h-.03c0-.01-.01 0 0 0l.04.1.03.08zm.28.34l-.01.02v-.02zm.06-.26l.01-.03.02-.06.03-.03c0-.01.02-.03 0-.03v-.05-.04-.01l.01-.02v-.02-.02c.02 0 .02 0 0-.01a.4.4 0 01-.02-.04c-.02-.03-.02-.02-.03.03l-.01.05-.01.03a.24.24 0 01-.04.05.1.1 0 00-.03.04c0 .02 0 .02-.02.02-.01 0-.02 0-.03.02V9.89h.04c.02 0 .03 0 .03.02h.01a.17.17 0 00.04-.08zm-.03.25l-.01.02-.02.01c0 .02 0 .02 0 0h.03v-.03zm0 .05l.01.01c0 .02.02.02.02 0 0-.01 0-.02-.02-.01zm.14-.07a.2.2 0 00-.06.07c0 .02 0 .02.03-.02a.17.17 0 01.03-.04l.01-.01c0-.02 0-.02-.01 0zm.05-.4c0 .02-.04.03-.05.01l-.04.07v.03a.3.3 0 00-.03.12l-.01.05v.03l.02-.07c0-.03.02-.05.02-.05V9.91c.02-.02.03-.02.01 0v.04l.01-.06v-.05-.04l.02-.03.02-.02s-.02 0-.03.02h-.02v-.04c0-.02.02-.03.04-.02.03 0 .03-.01.04-.03.02-.03.02-.04 0-.01zm0 .48v.02c-.02 0-.02 0 0 0v-.02zm.01-.3l-.02.01h.02zm-.04-.47H8.4v.05s0 .01 0 0l.01-.02.02.03c0 .03.02.04.03.04v-.03-.01-.01l-.03-.1v.03c-.01.03-.02.04-.02.02zm.07.62V9.98zm-.01-.16h.03c0 .01 0 .01 0 0s0-.02-.01-.01l-.02.01zm.01-.1a.6.6 0 00.03-.08c0-.03 0-.03-.01-.01l-.02.09zm.05-.03zm.3.19c0-.01 0-.01 0 0zm.42-.39a4.59 4.59 0 01-4.62 4.56A4.59 4.59 0 010 9.5a4.59 4.59 0 014.62-4.55A4.59 4.59 0 019.24 9.5zM7.56 8.01v.01l.01.02v-.02l-.01-.01zm-.13-.88v.04c0 .05-.01.12-.03.13v.02l.03-.03.02-.02v-.1a.28.28 0 00-.02-.04zm-.57.37h0s-.01 0 0 0zm.03-1.25c.01.01.01.01 0 0 0-.02-.03-.04-.03-.03l.03.03zM6.8 7.47l-.02.01c-.03.01-.04.03-.03.05.01.03.02.03.02 0 0-.02.01-.03.02-.03l.02-.01v-.02zm.1.22s-.02 0-.01.02l.01.01.02-.01c0-.01 0-.02-.02-.02zm-.35-1.4v.02l.02.02V6.31c-.01-.04-.02-.05-.02-.02zm.38-.07v.01l.02.01-.02-.02zm.04 1.2l.03.02v-.01c-.02 0-.03-.02-.03-.02zM2.92 5.8c.01-.02 0-.02-.02 0l-.02.01h.01l.03-.01zm-.83 1.83c.02 0 .05 0 .06-.02.01-.02.02-.04 0-.03l-.04.02c-.06.01-.07.03-.02.03zm-.33-.97c-.02 0-.02.02-.04.03l-.03.03c.02 0 .03-.01.03-.02l.02-.01v.01c-.01.01 0 .01 0 0a.28.28 0 01.05-.04c.04 0 .04-.03.01-.02-.02 0-.02 0 0 0 .02-.02-.01-.01-.07.02l-.05.02.04-.01.04-.01zm.07.68c-.01.02-.02.02 0 .02l.01-.02.01-.02-.02.02zm-.04-.1V7.25zm.1-.12l-.02.01-.02.02c-.02.02-.02.06-.01.07l-.01.05v.01a.32.32 0 00.04-.09l.01-.07zm-.07.03l-.02.04v.02c-.01 0-.02.01-.01.02l.01-.03.03-.05c.01-.03.01-.03-.01 0zM1.87 7l-.02.02v.02l.06-.07c0-.02 0-.01-.03 0L1.87 7zm-.1-.2h-.01c0 .02-.01.03-.04.05a1.1 1.1 0 00-.03.03h.03l.04-.02.05-.04a.22.22 0 01.04-.03l.02-.01c.01-.02-.01-.01-.04.01s-.05.03-.06.01zm.03.11a.09.09 0 00-.04.03c-.03.02-.03.02.02 0 .04-.03.04-.03.02-.03zm.27-.2l-.02.01v.02l.02-.02zm-.16.82a.74.74 0 00-.1.2c0 .02.04-.03.07-.09a.23.23 0 01.07-.09c.04-.04.04-.04.05 0l-.02.04a.14.14 0 00-.02.03c.02-.02.02-.01.02.01v.04L2 7.62a.6.6 0 00.04-.07v.01c.02.04.04 0 .03-.03 0-.03-.02-.04-.03-.01-.01 0-.01 0 0 0 0-.03-.1-.02-.14.01zm0-.07l.02-.01c0 .02 0 .03.05.03H2l.01-.04v-.03-.01c-.01-.04-.04-.03-.1.02a1.6 1.6 0 00-.08.05c-.02.02.04 0 .07-.01zm.1-.14c0-.01 0-.03-.01-.01-.02.01-.03.03-.02.03.01 0 .02 0 .02-.02zm-.05.38c-.03 0-.05.03-.02.03.02 0 .1-.04.11-.06.02-.02 0-.01-.1.03zm.87-.59l.02-.01c.02-.02.02-.02-.01 0l-.01.01zm-.3.14l.01-.02V7.2c-.02.02-.02.04-.01.04zm.2-.15V7.1v-.02l-.01.02v.01zm.1-1.24s-.01 0 0 0c0 .01 0 0 0 0zm-.57.65V6.5v.01zm.19 5.12v-.03l-.02.03h.02zm.28-5.7c.02-.01.04-.03.03-.04h-.01l-.03.03c-.01 0-.01 0 0 0zm-.32 1.3l-.03.02c-.02.03-.01.03.02 0 .02-.01.02-.01 0-.01zm-.02-.64c.01-.02 0-.03-.01-.02v.01zm.17-.26h-.02.02zm.2-.08l.04-.01.02-.02h-.04-.01l-.02.02c0 .01 0 .02.02.01zm.16.04l.02-.01H2.9v.01zm-.1.21h.04v-.02c-.01-.01-.02-.01-.03.01v.01zm2.33.06v0zm0-.31v.03l.01-.02v-.01zm.48 3.86l.05-.01.01-.01s0-.04.02-.06c.03-.05.03-.05.01-.06h-.09l-.02.08c0 .06 0 .06.02.06zm-.4-3.53v.02l-.02.01c0 .02-.01.02-.02.02h-.01v.02c.03 0 .07-.03.06-.05v-.02zm-4.1.48l-.03.02h.02v-.02zm3.57-.31a.1.1 0 00-.02.02c0 .01.04 0 .05-.02 0-.02-.01-.02-.03 0zm3.35.98V7.7 7.7v.03zM5.1 6.6l.01.03v-.02c0-.02 0-.03 0 0zm.6 3.89v-.04s-.02.03-.02.07v.09l.01.04c.02.02.02.01.02-.05v-.07-.04zm.13-.74c0 .02 0 .05.02.06.01.02.02.02 0 0a.2.2 0 01-.01-.06l-.01-.04v.04zm.02-.44v-.01-.01c-.01 0-.02 0-.02.02h.02zm-1.89.22h-.02l.02.02c.01.01.02.02.02 0l-.02-.02zm0 .07v.02l.02-.02V9.6l-.02.02zm.73-.38c-.04-.02-.04-.02-.02.03.01.02.06.02.06 0l-.04-.03zm1.75-2.96l.01.02v-.01l-.01-.01zm-4.4 6.03v-.01.01zm-.09-.17l.02.02v-.01l-.02-.01zm-.22-1.38l.03.02v-.01c-.02-.03-.04-.04-.03-.01zM1.6 9.36v.06l.01-.01c.02-.03 0-.07 0-.05zm-.35-1.58v-.02l-.01.03zm0 1.45c-.02 0-.02 0-.02.02 0 .03.02.03.02 0v-.02zm.82 3.13h.03c0-.02-.01-.02-.03 0zM3.3 6.3h-.01.01zm.2 7.28c-.01 0-.01 0 0 0v.01zM3.1 5.9v.01h.02v-.02l-.02.01zm1.19-.19h.01c0-.02-.02-.01-.02 0zM8 9.21L8 9.18l.01.02zM3.97 6.17l.01-.02c0-.02 0-.02-.01 0v.02zM16.92 9.5c0 5.47-4.4 9.5-9.99 9.5H1.15v-3.8h5.78c3.2 0 5.76-2.55 5.76-5.7 0-3.15-2.56-5.7-5.76-5.7H1.15V0h5.78c5.59 0 10 4.03 10 9.5z" />
</svg>