<svg xmlns="http://www.w3.org/2000/svg" viewBox="0 0 98 28" fill="none">
  <path fill="#4A4A4A" fill-rule="evenodd" d="M91.72 21.6l.3-.9.31.02a5.5 5.5 0 003.08-1c.9-.6 1.57-1.29 2.06-2.24.4-.8.6-1.84.5-2.77-.07-.78-.37-1.74-1.06-2.19-.44-.29-.84-.23-1.29 0-.56.3-.8.5-1.32 1-.25.23-1.11 1.13-1.33 1.38-.23.25-.42.48-.68.83-.49.63-1.23 1.66-1.23 1.66s-.04-.24-.05-.43c0-.07.09-.6.12-.71v-.01c.23-.72.33-1.04.78-1.83l.23-.4c.37-.6.78-1.3.89-1.99.04-.25 0-.55-.27-.57-.26 0-.83.68-.92.79-1.16 1.43-2.2 3.22-2.2 5.03 0 .57.14 1.28.42 1.86v.09c-.88 2.3-1.2 3.32-1.52 5.64-.1.66-.2 1.8.26 2.4.23.3.5.46.8.62.24.13.32.17.52.05.08-.05.1-.07.13-.13.03-.05.5-2.27.67-3.11.1-.57.59-2.4.8-3.09zM36.5 10.46a2 2 0 01.41 1.15c.03.43-.1.84-.35 1.17-.41.56-1.1.84-1.8.9a4.4 4.4 0 01-.83-.04h-.04c-.02 0-.11.39-.13.52l-.12.73a15.66 15.66 0 00-.18 1.4c-.16 1.85-.1 2.77.05 4.58.01.11.02.24 0 .31a.51.51 0 01-.39.43c-.65.17-1.26-.47-1.58-.97-.74-1.19-.5-3.6-.29-4.8a15.19 15.19 0 01.68-2.64c0-.02-.3-.13-.59-.24l-.06-.02c-.12-.05-.51-.25-.68-.35a3.43 3.43 0 01-.82-.65 4.58 4.58 0 01-.34-.52c-.2-.44-.2-.81-.04-1.27.05-.12.29-.62.45-.6.16.01.18.2.2.38 0 .08.02.15.03.2.02.07.09.19.14.25.32.37 1.39.78 1.82.9.07.03.75.23.85.19.02-.01.1-.15.18-.28l.06-.1c.04-.08.1-.14.15-.2a3.34 3.34 0 011.64-.98 1.93 1.93 0 011.1.16c.07.04.25.13.48.39zm-.51.85c-.31.1-.56.12-.95.14-.03 0-.03 0-.03-.02a.97.97 0 01.86-.61c.12 0 .33.03.39.13.1.16-.1.3-.27.36zm25.3-1.84c-.05.05-.1.14-.16.24l-.09.17a.8.8 0 01-.19.2c-.2.14-.36.14-.55-.02A1.25 1.25 0 0159.85 9v-.26c-.04-.14-.14-.27-.24-.4a2.4 2.4 0 01-.16-.22 2.34 2.34 0 01-.26-.91c-.05-.82.4-1.58 1-2.18.61-.6 1.4-1.1 2.26-1.45.81-.32 2-.54 2.9-.25a2.23 2.23 0 01.92.6c.03.04.06.08.1.1.02.02.09.03.16.04h.06c.28.05.7.26.86.39.34.27.52.53.6.91.18.76-.29 1.6-.82 2.1-.9.88-1.8 1.5-2.97 1.93a5 5 0 01-1.88.3c-.1 0-.18-.01-.27-.03l-.27-.03a2.4 2.4 0 01-.45-.11c-.05-.03-.1-.06-.11-.05zm4.12-1.84a4.57 4.57 0 01-3.04.57 8.47 8.47 0 00.27-.41l.19-.26a9.37 9.37 0 012.22-2.08c.24-.14.35-.19.6-.27.35-.1.5-.13.77 0 .2.1.37.3.4.56.1.83-.8 1.53-1.41 1.89zM61.06 7l-.46.64-.09-.2c-.23-.56.3-1.2.77-1.6.29-.24.87-.61 1.26-.69L63 5.1l-.35.28c-.52.43-1.2 1.13-1.59 1.63zm-30.8 8.72a.26.26 0 00-.07-.02c-.27-.02-.57.07-.8.16-.35.13-.84.34-1.24.52-.35.15-.62.27-.66.27-.18.02-.23-.1-.26-.35-.06-.42.08-1.22.17-1.67l.01-.1c.07-.4.37-1.77.58-2.65v-.03c.12-.5.27-1.1.22-1.57-.05-.37-.23-.86-.64-.7-.42.14-.87 1.06-.96 1.25a14.7 14.7 0 00-1.15 5.8c.03.6.18 1.26.53 1.78.38.59 1.01.78 1.73.64a3.73 3.73 0 002.79-2.36c.07-.27.07-.83-.24-.97zm-8.62-.45h.24c.38 0 1.03-.1 1.03-.1l-.13-1.15-.12-.72-.01-.03v-.02c-.04-.14-.09-.37-.14-.47l-.03-.05s-.3.74-.48 1.26l-.16.51-.15.46a.69.69 0 00-.05.31zm-2.38-.79l-.38.83-.8.04c-.04 0-.04 0-.07.02-.07.06-.12.2-.1.25 0 .05.04.12.09.18l.17.26c.22.3.32.45.21.77l-.17.45c-.26.7-.46 1.24-.37 1.89.07.46.25.9.64 1.11.2.11.4.1.7.05.25-.03.35-.18.46-.44.04-.1.2-.63.3-1.04l.09-.29c.06-.2.19-.55.33-.91l.15-.37.88-.01 1.57-.06s.1 1.03.16 1.39c.08.41.32.75.68 1.08.13.12.43.32.57.33.11 0 .23-.07.29-.15.16-.23.16-.68.16-.95-.01-.39-.13-2.11-.16-2.44a36.63 36.63 0 00-.95-5.02c-.07-.24-.4-1.22-.6-1.57-.1-.18-.34-.35-.57-.33-.2 0-.41.06-.5.2-.1.15-.13.34-.15.46v.02c0 .02-.43.6-.82 1.12l-.37.5c-.37.5-1.26 2.25-1.44 2.63zm-9.1-4.42s-.02-.52-.07-.8a1.4 1.4 0 00-.22-.62c-.14-.2-.25-.33-.46-.36-.27-.04-.42.13-.59.37a6.5 6.5 0 00-.58 1.32 14.63 14.63 0 00-.53 5.44l.1.5s.26-.28.46-.47c.08-.08.48-.63.52-.69l.04-.06a6.86 6.86 0 00.61-1.15l.35-.96c.16-.45.2-.73.25-1.07.03-.2.06-.41.12-.7.02-.1.03-.75.01-.75h-.01zm-1.87 7.53l-.17-.29s.87-.64 1.32-1.02a7.13 7.13 0 002.37-4.29c.17-1.1.13-2.77-.48-3.83-.35-.61-1.05-.9-1.72-.89-.8.02-1.73.45-2.3.94a6.16 6.16 0 00-2.2 4.26c-.14 1.2 0 2.93.37 4.03l.34.91-.45.2c-.7.27-1.25.3-1.83-.12-.56-.39-.93-1.23-1.08-1.85a9.8 9.8 0 01-.2-1.66c-.09-2.38.8-5.44 1.92-7.38.12-.2 1-1.53 1.2-1.8a37.38 37.38 0 011.84-2.22c.08-.14.08-.24-.03-.35-.2-.22-.56-.1-.83.02-.14.07-.87.49-1 .58a11.74 11.74 0 00-2.95 3.22A15.25 15.25 0 00.1 12.33a8.6 8.6 0 00.28 3.87c.28.84.92 1.77 1.68 2.26a3.85 3.85 0 004.22-.03c.02 0 .17.27.3.49a4.47 4.47 0 003.33 2.05c1.66.2 3.17-.53 4.56-1.65.28-.23.88-.74 1.12-1a12.34 12.34 0 002.15-3.74c.7-1.98.86-4.23.6-6.2A11.6 11.6 0 0017 4.17c-.12-.23-.8-1.33-.96-1.57A7.5 7.5 0 0013.54.3c-.23-.14-.69-.39-.9-.27-.2.12-.16.26-.03.43.08.1.28.3.48.5l.36.37c.96 1 1.73 2.67 2.13 4.01.68 2.3.65 4.82.08 7.2-.49 2.03-1.38 4.14-3.07 5.32-.6.41-1.64.88-2.45.84a2.23 2.23 0 01-1.85-1.11zm54.27-6.13l.12.04c.34.15.48.52.56.93.2.94.28 3.03.32 3.85l.03 1 .03.82v.12c.02.5.04 1.11-.04 1.56a.8.8 0 01-.28.47c-.16.13-.53.13-.74.09-.5-.13-.66-.5-.73-1.08a33.6 33.6 0 010-5.24c.04-.37.16-1.59.33-2.1.06-.16.19-.51.4-.46zm-19.44 2.03c.58-.07 1.41-.13 1.41-.13s-.02.87-.02 1.75c0 1.66.04 3.34.04 3.34s-.58-.2-.92-.36a14.4 14.4 0 01-3.04-1.91c-.16-.14-.74-.71-.84-.84-.17-.21-.33-.41-.29-.68.04-.25.53-.46.77-.55.79-.3 2.16-.54 2.9-.62zm17.32.23a6.9 6.9 0 01-.08 1.37c-.04.26-.24.83-.27.9-.15.36-.3.65-.47.94-.29.49-.95 1.27-1.35 1.6-1.48 1.25-3.77 1.96-5.73 2.2-1.33.15-2.86.12-4.28-.13l-1.2-.25s0 .28-.02.48c-.02.1-.09.33-.13.4-.1.21-.27.32-.51.36-.3.06-.61.08-.88-.04-.45-.18-.61-.6-.7-1.06l-.12-1.03-.62-.3a15.89 15.89 0 01-3.62-2.43c-.53-.48-1-.97-1.36-1.59-.28-.48-.36-.91-.15-1.43.3-.71 1.35-1.25 2.07-1.56a17.55 17.55 0 013.75-1.03 30.1 30.1 0 01.3-3.27c.03-.2.18-.93.33-1.12.1-.13.27-.13.42-.04.78.48 1.02 2.12 1.08 2.96.03.51.05 1.28.05 1.28s.9-.02 1.46 0c.53 0 1.13.09 1.69.17.71.11 2.1.41 2.9.8.66.33 1.28.88 1.48 1.46.19.53.16.9-.13 1.37-.31.55-.91.95-1.52.98-.18.01-.87-.08-1.08-.23-.08-.07-.08-.18-.02-.26l.47-.25.06-.04c.1-.05.18-.1.25-.17.16-.13.3-.28.28-.45-.02-.23-.26-.36-.5-.45-1.09-.42-3.27-.78-4.32-.84l-1-.04.12 5.66s.49.1.87.15c.22.03 1.15.12 1.4.12 1.88.05 3.97-.11 5.7-.9a5.94 5.94 0 001.98-1.37c.69-.77 1.05-1.83.96-2.94-.1-1.2-.98-2.64-1.68-3.51-1.84-2.31-5-4.2-7.78-5.32a25.36 25.36 0 00-8.65-1.9c-.78-.03-2.47.01-3.32.24l-.13.04-.23.06c-.1.02-.23.08-.27.11l-.05.04.1.05c.06.02.22.04.38.06l.3.04c.17.03.36.12.43.25.07.12.08.21 0 .3-.2.24-.93.2-1.25.15-.33-.05-.75-.15-.83-.43-.08-.34.08-.66.25-.97.36-.6.86-.91 1.6-1.11 1.05-.28 2.38-.48 3.38-.52 2.24-.08 4.37.3 6.55.95 1.25.36 2.88.98 4.07 1.54.86.4 2.21 1.14 2.97 1.63a22.28 22.28 0 013.33 2.63 13.47 13.47 0 012.5 3.25c.07.15.14.31.24.48a6.34 6.34 0 01.42 1.21l.03.13c.03.18.09.48.08.62zm9.35.97h-.08l-3.13-.38-.09-.01-.07-.02c-.21-.03-.67-.11-.48-.32.06-.07.23-.12.34-.15h.03c1.08-.3 2.38-.35 3.6-.4.37 0 .74-.02 1.1-.04h.01c.34-.02 1.08-.06 1.44-.18a1 1 0 00.71-.74c.04-.2-.06-.3-.25-.4-1.23-.67-3.26-.67-4.51-.5-1.3.15-3.03.56-3.77 1.63a2.06 2.06 0 00-.32 1.56c.07.28.32.54.57.65.25.12.57.18.86.22.26.04 1.3.13 2.05.19l.15.01c.7.06 2.09.21 2.84.53a1.78 1.78 0 01.48.29l.01.01.07.09h.03c.07.02.1.24.1.26 0 .2-.14.37-.3.47a6.8 6.8 0 01-3.98 1c-.46 0-.84-.08-1.3-.28-.2-.09-.46-.3-.43-.52.08-.44.55-.55.95-.51.22.02.5.11.72.2l.5.2c.55.25.93.41 1.53.32.29-.05 1.28-.26 1.41-.67.03-.1-.01-.21-.09-.29-.1-.1-.7-.34-.86-.4-.58-.2-1.68-.4-2.3-.42-.8-.03-1.87.12-2.37.81a1.38 1.38 0 00-.06 1.48c.35.62 1.04 1.1 1.6 1.38.97.47 2.12.69 3.18.57.62-.07 1.15-.2 1.69-.46a2.95 2.95 0 001.34-1.3c.35-.75.33-1.76-.06-2.48a1.92 1.92 0 00-1-.95 7.02 7.02 0 00-1.85-.44zm4.81 5.59c-.6-.22-.74-1.2-.77-1.7-.1-1.6.33-3.84.87-5.34l.03-.07c.15-.43.38-1.06.83-1.02.33.03.57.28.75.54.48.67 1.1 1.58 1.52 2.2l.51.8.83 1.27h.01c.05.08.1.15.16.2.08.06.15.07.18 0 .01-.02-.01-.83-.03-1l-.05-.36c0-.11-.02-.22-.03-.32a19.04 19.04 0 00-.7-3.1l-.32-1.17c-.05-.21-.1-.43-.1-.64 0-.3.2-.46.51-.35.62.21 1.44 1.55 1.67 2.01a9.63 9.63 0 01.96 3.5c.07.8.01 1.99-.33 2.79-.13.29-.39.68-.6.88-.34.31-1.01.56-1.48.3-.5-.3-1.34-1.73-1.48-1.98-.26-.44-.61-1.11-.9-1.67l-.55-1a.23.23 0 00-.13-.1c-.04-.01-.06.09-.08.15a42.24 42.24 0 00-.14 2.93c-.02.44-.04 1.21-.14 1.62-.07.3-.14.54-.42.66-.2.1-.34.05-.58-.03zm8.03-.63c.08.08.19.2.25.24l.23.16c0 .01.3.16.38.18.05 0 .1.02.14.03.34.1.48.13.93.08A8.08 8.08 0 0088 18.86c.27-.2.49-.4.48-.69-.02-.3-.12-.52-.32-.78-.23-.28-.45-.25-.89-.18l-.64.1c-.65.1-1.33.2-1.82.3-.13.01-.28.03-.44.03h-.2s.12-.44.26-.87c.13-.42.3-.82.3-.82l.37-.05c.15-.02.79-.03 1.4-.04l1.28-.04c.37-.06.46-.28.44-.75-.01-.4-.14-.68-.5-.76-.1-.02-.27-.03-.45-.03l-1.98.01.36-1.2h1.23c.33 0 2.1-.02 2.65-.35.36-.22.2-.62-.04-.96-.44-.63-.93-.94-1.68-.96a28.43 28.43 0 00-3.56.36c-.33.05-1.36.25-1.5.29-.35.1-.47.3-.3.64.15.29.4.44.71.56.29.11.82.23.82.23l-.33.92-.01.03c-.09.25-.2.55-.36.59a1.5 1.5 0 00-.1.01c-.42.04-.67.27-.66.6 0 .1.05.32.1.53.03.2.07.38.06.43l-.03.12c-.1.28-.19.46-.25.6-.1.2-.16.34-.22.66-.11.55-.12 1.07.08 1.59l.08.17.02.05c.04.1.27.43.28.45zm13.6-5.6c-.57.45-1.3 1.38-1.65 1.86-.23.31-.45.65-.67.98-.22.34-.44.66-.65.95-.09.13-.36.58-.35.6.02.03.29.02.57-.03.6-.1 1.4-.5 1.84-.83.66-.5 1.11-1.2 1.33-2.01.1-.37.15-1.15-.13-1.5-.05-.06-.19-.11-.3-.02z" clip-rule="evenodd" />
</svg>