<svg xmlns="http://www.w3.org/2000/svg" viewBox="0 0 55 24" fill="none">
  <path fill="#4A4A4A" d="M54.7 23.62h-7.56c-.07 0-.2-.3-.24-.36l-3.12-5.6c-1.1 1.98-2.18 4-3.29 5.98h-7.4c.28-.52.58-1.03.88-1.54 2.06-3.54 4.1-7.13 6.17-10.68-2.2-3.81-4.43-7.6-6.65-11.4 0 0-.02-.02 0-.02h7.6c.94 1.69 1.85 3.4 2.77 5.1.96-1.69 1.89-3.4 2.83-5.1h7.36l-.03.09c-2.15 3.74-4.35 7.5-6.5 11.24 2.4 4.1 4.82 8.2 7.19 12.3z" />
  <path fill="#4A4A4A" fill-rule="evenodd" d="M36.47 12.03A11.48 11.48 0 0027.75.95 9.99 9.99 0 0025.2.68h-.02a10.28 10.28 0 00-4.56 1.07A11.11 11.11 0 0016.7 4.9a11.56 11.56 0 00-2.51 7.41c.04 1.84.43 3.35 1.01 4.66.88 1.95 2.16 3.5 3.82 4.66a10.74 10.74 0 006.45 2.02 10.59 10.59 0 006.33-2.13 10.61 10.61 0 002.75-2.9 11.49 11.49 0 001.92-6.58zm-9.14 4.43c0 .3.01.6-.05.83-.2.8-.84 1.4-1.72 1.5a1.92 1.92 0 01-2.08-1.66c-.02-.13-.01-.27-.01-.41V7.95 7.9c0-.35 0-.7.06-.97.14-.56.46-.98.9-1.26.22-.14.49-.25.8-.27.66-.05 1.18.27 1.53.63a2.02 2.02 0 01.57 1.58V16.46z" clip-rule="evenodd" />
  <path fill="#4A4A4A" d="M14.86 6.46H6.8c-.03 1 0 2.08-.01 3.08 2.18.02 4.39 0 6.58 0V16H6.74l.01 7.63v.02H.03.01V.01 0h14.4l.45 6.46z" />
</svg>