<svg xmlns="http://www.w3.org/2000/svg" viewBox="0 0 72 20" fill="none">
  <path fill="#4A4A4A" fill-rule="evenodd" d="M7.92 18.4l-1.36.15L3.09 8.39V19c-.97.1-1.87.23-2.8.37L0 19.4V0h2.88l3.94 11V0h3.06v18.15c-.65.11-1.3.18-1.96.25zm7.93-11.3l2.11-.02 1.95-.03v3.03c-1.35 0-2.92 0-4.06.06v4.5l1.52-.1c1.27-.09 2.55-.18 3.85-.22v2.92l-8.4.66V0h8.4v3.03h-5.37V7.1zm13.5-4.07h3.14V0h-9.32v3.03h3.14v13.98c.99-.03 2.01-.03 3.04-.03V3.03zm8.07 3.87h4.16v3.03h-4.16v6.87h-2.97V0h8.47v3.03h-5.5V6.9zm14.2 7.43c-1.24-.07-2.51-.15-3.77-.18V0H44.8v17.01c2.77.06 5.48.23 8.2.4v-3l-1.38-.08zm3.95 3.29h.15c.92.06 1.89.12 2.82.23V0h-2.97v17.62zm12.42-8.4L71.83 0h-3.31l-2.13 5.1L64.4 0h-3.26l3.53 9.11-3.9 8.89 1.34.15c.64.07 1.27.13 1.91.25l2.22-5.16 2.18 5.61.85.14c.86.15 1.71.3 2.56.41L68 9.23z" clip-rule="evenodd" />
</svg>