<svg xmlns="http://www.w3.org/2000/svg" viewBox="0 0 83 15" fill="none">
  <path fill="#4A4A4A" fill-rule="evenodd" d="M21.73 11.97c1.85 1.66 4.62 2.56 7.6 2.56 3 0 5.82-.89 7.62-2.56a6.55 6.55 0 002.04-4.72c0-1.74-.67-3.45-2.04-4.7C35.02.8 32.49 0 29.33 0c-2.85 0-5.88.98-7.6 2.55a6.35 6.35 0 00-2.06 4.7c0 1.76.67 3.46 2.06 4.72zm7.7.64a5.8 5.8 0 01-4.08-1.57 5.32 5.32 0 01-1.49-3.79 5.3 5.3 0 011.49-3.8 5.82 5.82 0 014.08-1.56c1.57 0 3.07.56 4.08 1.56.98.97 1.5 2.34 1.5 3.8 0 1.53-.48 2.78-1.5 3.8a5.72 5.72 0 01-4.08 1.56zM2.58 1C4.12.31 5.94.01 7.53.01c2.82 0 5.11.92 5.93 1.35.32.18.5-.04.5-.2V.63h1.8v4.43h-1.62a3.08 3.08 0 00-1-1.7c-.31-.24-.7-.45-1.03-.6a10.7 10.7 0 00-4.29-.84c-1.52 0-2.98.28-3.7.73-.46.29-.69.64-.69 1.06 0 .59.5.83.75.9.69.22 2.23.37 3.4.49l.64.06c1.12.12 3.46.43 4.5.69.53.13 1.19.36 1.6.56a3.75 3.75 0 012.36 3.52c0 1.51-.9 2.35-1.3 2.67-.76.6-1.69 1-2.44 1.2l-.07.03c-.8.23-1.94.56-4.02.56a12 12 0 01-2.9-.35L5.8 14a15.85 15.85 0 01-2.94-.95c-.34-.15-.44.17-.44.25v.68h-2V8.91h1.8c0 .6.29 1.21.47 1.43a4.7 4.7 0 002.26 1.52c.65.23 2.42.67 3.9.67 1.88 0 2.98-.45 3.23-.56l.04-.01.03-.01c.23-.1 1.06-.41 1.06-1.34 0-.96-.81-1.16-1.34-1.3l-.06-.01c-.63-.16-2.11-.32-3.66-.48l-.27-.03a44.5 44.5 0 01-4.1-.6C2.07 7.8 1.4 7.19.98 6.8l-.03-.03C.97 6.8 0 5.9 0 4.37 0 2.65 1.16 1.62 2.58.98zM47.3.81l8.85 8-.09-5.38c0-.71-.14-1-.9-1H53.5V.8h7.57v1.62h-1.63c-.78 0-.82.24-.83 1l.13 10.3h-2.59L45.95 4.6v6.47c.02.7.05 1.04.77 1.04h1.82v1.6h-7.43v-1.6h1.73c.63 0 .63-.58.63-1.03V3.5c0-.49-.07-1.06-1.09-1.06h-1.41V.8h6.33zM70.16 12.1l-.44.02h-1.58v1.62h8.83V12.1h-1.66c-.07 0-.38 0-.44-.03a.55.55 0 01-.35-.3 1.8 1.8 0 01-.04-.35V8.88v-.02c0-.06 0-.15.06-.22l1.3-1.49 3.6-4.11c.44-.5.68-.61 1.27-.61h1.63V.8h-7.28v1.62h1.1c.31 0 .4.32.26.5-.02.02-3.04 3.59-3.08 3.62-.04.04-.06.03-.09-.01l-3.02-3.62c-.2-.26-.04-.5.2-.5h1.08V.82h-8.88v1.6h1.57c.69 0 1.14.44 1.4.72.2.23 4.73 5.36 4.84 5.51.1.14.1.17.1.23v2.55c0 .05 0 .3-.03.35a.56.56 0 01-.35.3z" clip-rule="evenodd" />
</svg>