<svg xmlns="http://www.w3.org/2000/svg" viewBox="0 0 107 13" fill="none">
  <path fill="#4A4A4A" d="M100.4 5.41l-.5-1.11a6.6 6.6 0 013.44-.9c2.35 0 3.49 1.27 3.49 3.64v5.73h-1.16l-.12-1.03a5.26 5.26 0 01-3.24 1.22c-1.8 0-2.93-1.08-2.93-2.67 0-1.75 1.14-2.85 3.45-2.85h2.66v-.3c0-1.64-.73-2.52-2.37-2.52-.96.02-1.9.3-2.71.8zm5.1 3.15h-2.61c-1.44 0-2.16.59-2.16 1.58 0 1 .77 1.6 1.9 1.6a4.5 4.5 0 002.86-1.13V8.56zm-31.06 4.2l-1.7-9.84-3.56 9.85h-1.02L64.62 2.9l-1.71 9.87h-1.43L63.72.39h1.38l3.58 10.3L72.24.39h1.39l2.23 12.38h-1.42zm10.05-.64c-1 .56-2.14.84-3.29.83-2.8 0-4.58-1.95-4.58-4.78 0-2.67 1.78-4.77 4.26-4.77 2.48 0 3.95 1.89 3.95 4.26 0 .33 0 .67-.03 1h-6.81c.21 1.88 1.44 3.1 3.32 3.1a6.25 6.25 0 002.72-.67l.46 1.03zm-1.02-4.6v-.08c0-1.62-.97-2.86-2.57-2.86-1.6 0-2.67 1.26-2.9 2.94h5.47zM94.45 0v12.75H93.3l-.13-.93a4.66 4.66 0 01-3.07 1.13c-2.52 0-3.92-2.16-3.92-4.76 0-2.67 1.6-4.8 4.15-4.8 1.01 0 2 .33 2.8.92V0h1.32zm-4.08 11.74a4.33 4.33 0 002.73-1.08V5.6c-.7-.62-1.6-.98-2.55-1-1.89 0-3.02 1.51-3.02 3.6 0 1.96.99 3.55 2.84 3.55zm7.42-8.3v9.33h-1.35V3.43h1.35zM8.7 4.98c-.14.81-.36 1.71-.48 2.24l-1.37 5.54h-3.2L0 .39h2.95l1.7 6.19.55 2.26L7.28.4h2.82l2.11 8.46.56-2.27L14.44.4h2.95l-3.6 12.38h-3.21l-1.4-5.54C9.07 6.7 8.86 5.8 8.7 5zm25.7-1.56h2.34l.18.97a4.24 4.24 0 013-1.19 2.84 2.84 0 012.3.98c.55.65.8 1.58.8 2.76v5.82h-2.67V7.1c.03-.43-.1-.86-.36-1.2a1.4 1.4 0 00-1.15-.4 2.8 2.8 0 00-1.76.7v6.56h-2.67V3.43zm17.74 6.81l.82 1.79a6.9 6.9 0 01-3.7.97c-2.8 0-4.81-2.05-4.81-4.9 0-2.73 1.85-4.87 4.58-4.87 2.63 0 4.26 1.83 4.26 4.58 0 .36 0 .84-.03 1.1h-6.17c.24 1.3 1.12 1.91 2.6 1.91.85 0 1.69-.2 2.45-.58zm-5.06-3.06h3.74v-.09c0-.48-.16-.95-.48-1.32a1.67 1.67 0 00-1.28-.54 1.8 1.8 0 00-1.31.54c-.36.4-.6.9-.67 1.43v-.02zm-14.2-3.76a4.16 4.16 0 00-3.28 1.2l-.18-1.19h-2.34v9.34h2.68V6.38a4.33 4.33 0 013.12-.55V3.42zM60.5 5.83h.03l.44-2.29-.14-.04a3.23 3.23 0 00-.68-.09 4.17 4.17 0 00-2.93 1.23l-.18-1.19h-2.34v9.32h2.68V6.38c.67-.4 1.43-.61 2.22-.62.3 0 .61.02.91.07h-.01zM97.09 0a.87.87 0 00-.8.53.84.84 0 00.19.92.87.87 0 001.47-.6c0-.22-.09-.44-.25-.6a.87.87 0 00-.61-.25zM21.45 3.22c-1.25 0-2.5.26-3.64.76l.51 2.06a6.78 6.78 0 012.68-.6c1.17 0 1.78.47 1.78 1.67v.09h-1.82c-2.64 0-3.85 1.04-3.85 2.93 0 1.7 1.25 2.87 3.12 2.87 1.06 0 2.08-.4 2.86-1.12l.16.89h2.19V6.95c0-2.39-1.44-3.73-3.99-3.73zm1.33 7.2c-.5.35-1.1.56-1.7.6-.81 0-1.29-.43-1.29-1.07 0-.64.47-1.06 1.35-1.06h1.64v1.52z" />
</svg>